ISO-10303-21;
HEADER;
/* Generated by software containing ST-Developer
 * from STEP Tools, Inc. (www.steptools.com) 
 */

FILE_DESCRIPTION(
/* description */ (''),
/* implementation_level */ '2;1');

FILE_NAME(
/* name */ 'Kurokku case.step',
/* time_stamp */ '2026-06-24T00:22:49+08:00',
/* author */ (''),
/* organization */ (''),
/* preprocessor_version */ 'ST-DEVELOPER v20.1',
/* originating_system */ 'Autodesk Translation Framework v15.8.0.0',
/* authorisation */ '');

FILE_SCHEMA (('AUTOMOTIVE_DESIGN { 1 0 10303 214 3 1 1 }'));
ENDSEC;

DATA;
#10=MECHANICAL_DESIGN_GEOMETRIC_PRESENTATION_REPRESENTATION('',(#13),#1909);
#11=SHAPE_REPRESENTATION_RELATIONSHIP('SRR','None',#1916,#12);
#12=ADVANCED_BREP_SHAPE_REPRESENTATION('',(#14),#1908);
#13=STYLED_ITEM('',(#1925),#14);
#14=MANIFOLD_SOLID_BREP('Body1',#1129);
#15=SPHERICAL_SURFACE('',#1178,2.);
#16=SPHERICAL_SURFACE('',#1184,2.);
#17=SPHERICAL_SURFACE('',#1190,1.99999999999999);
#18=SPHERICAL_SURFACE('',#1197,2.);
#19=ELLIPSE('',#1156,2.12132034355964,1.5);
#20=ELLIPSE('',#1157,2.12132034355963,1.5);
#21=ELLIPSE('',#1159,2.12132034355965,1.5);
#22=ELLIPSE('',#1161,2.12132034355964,1.5);
#23=ELLIPSE('',#1174,2.33358574029062,1.5);
#24=ELLIPSE('',#1175,2.33358574029062,1.5);
#25=ELLIPSE('',#1176,2.33358574029062,1.5);
#26=ELLIPSE('',#1177,2.33358574029062,1.5);
#27=FACE_BOUND('',#135,.T.);
#28=FACE_BOUND('',#145,.T.);
#29=FACE_BOUND('',#146,.T.);
#30=FACE_BOUND('',#147,.T.);
#31=FACE_BOUND('',#148,.T.);
#32=FACE_BOUND('',#149,.T.);
#33=FACE_BOUND('',#150,.T.);
#34=FACE_BOUND('',#166,.T.);
#35=FACE_BOUND('',#177,.T.);
#36=FACE_BOUND('',#178,.T.);
#37=FACE_BOUND('',#189,.T.);
#38=FACE_BOUND('',#190,.T.);
#39=PLANE('',#1146);
#40=PLANE('',#1154);
#41=PLANE('',#1163);
#42=PLANE('',#1164);
#43=PLANE('',#1165);
#44=PLANE('',#1206);
#45=PLANE('',#1207);
#46=PLANE('',#1208);
#47=PLANE('',#1214);
#48=PLANE('',#1216);
#49=PLANE('',#1218);
#50=PLANE('',#1220);
#51=PLANE('',#1221);
#52=PLANE('',#1222);
#53=PLANE('',#1225);
#54=PLANE('',#1226);
#55=PLANE('',#1227);
#56=PLANE('',#1228);
#57=PLANE('',#1229);
#58=PLANE('',#1230);
#59=PLANE('',#1231);
#60=PLANE('',#1232);
#61=PLANE('',#1233);
#62=PLANE('',#1234);
#63=PLANE('',#1238);
#64=PLANE('',#1240);
#65=PLANE('',#1242);
#66=PLANE('',#1244);
#67=PLANE('',#1249);
#68=PLANE('',#1250);
#69=PLANE('',#1251);
#70=PLANE('',#1252);
#71=FACE_OUTER_BOUND('',#133,.T.);
#72=FACE_OUTER_BOUND('',#134,.T.);
#73=FACE_OUTER_BOUND('',#136,.T.);
#74=FACE_OUTER_BOUND('',#137,.T.);
#75=FACE_OUTER_BOUND('',#138,.T.);
#76=FACE_OUTER_BOUND('',#139,.T.);
#77=FACE_OUTER_BOUND('',#140,.T.);
#78=FACE_OUTER_BOUND('',#141,.T.);
#79=FACE_OUTER_BOUND('',#142,.T.);
#80=FACE_OUTER_BOUND('',#143,.T.);
#81=FACE_OUTER_BOUND('',#144,.T.);
#82=FACE_OUTER_BOUND('',#151,.T.);
#83=FACE_OUTER_BOUND('',#152,.T.);
#84=FACE_OUTER_BOUND('',#153,.T.);
#85=FACE_OUTER_BOUND('',#154,.T.);
#86=FACE_OUTER_BOUND('',#155,.T.);
#87=FACE_OUTER_BOUND('',#156,.T.);
#88=FACE_OUTER_BOUND('',#157,.T.);
#89=FACE_OUTER_BOUND('',#158,.T.);
#90=FACE_OUTER_BOUND('',#159,.T.);
#91=FACE_OUTER_BOUND('',#160,.T.);
#92=FACE_OUTER_BOUND('',#161,.T.);
#93=FACE_OUTER_BOUND('',#162,.T.);
#94=FACE_OUTER_BOUND('',#163,.T.);
#95=FACE_OUTER_BOUND('',#164,.T.);
#96=FACE_OUTER_BOUND('',#165,.T.);
#97=FACE_OUTER_BOUND('',#167,.T.);
#98=FACE_OUTER_BOUND('',#168,.T.);
#99=FACE_OUTER_BOUND('',#169,.T.);
#100=FACE_OUTER_BOUND('',#170,.T.);
#101=FACE_OUTER_BOUND('',#171,.T.);
#102=FACE_OUTER_BOUND('',#172,.T.);
#103=FACE_OUTER_BOUND('',#173,.T.);
#104=FACE_OUTER_BOUND('',#174,.T.);
#105=FACE_OUTER_BOUND('',#175,.T.);
#106=FACE_OUTER_BOUND('',#176,.T.);
#107=FACE_OUTER_BOUND('',#179,.T.);
#108=FACE_OUTER_BOUND('',#180,.T.);
#109=FACE_OUTER_BOUND('',#181,.T.);
#110=FACE_OUTER_BOUND('',#182,.T.);
#111=FACE_OUTER_BOUND('',#183,.T.);
#112=FACE_OUTER_BOUND('',#184,.T.);
#113=FACE_OUTER_BOUND('',#185,.T.);
#114=FACE_OUTER_BOUND('',#186,.T.);
#115=FACE_OUTER_BOUND('',#187,.T.);
#116=FACE_OUTER_BOUND('',#188,.T.);
#117=FACE_OUTER_BOUND('',#191,.T.);
#118=FACE_OUTER_BOUND('',#192,.T.);
#119=FACE_OUTER_BOUND('',#193,.T.);
#120=FACE_OUTER_BOUND('',#194,.T.);
#121=FACE_OUTER_BOUND('',#195,.T.);
#122=FACE_OUTER_BOUND('',#196,.T.);
#123=FACE_OUTER_BOUND('',#197,.T.);
#124=FACE_OUTER_BOUND('',#198,.T.);
#125=FACE_OUTER_BOUND('',#199,.T.);
#126=FACE_OUTER_BOUND('',#200,.T.);
#127=FACE_OUTER_BOUND('',#201,.T.);
#128=FACE_OUTER_BOUND('',#202,.T.);
#129=FACE_OUTER_BOUND('',#203,.T.);
#130=FACE_OUTER_BOUND('',#204,.T.);
#131=FACE_OUTER_BOUND('',#205,.T.);
#132=FACE_OUTER_BOUND('',#206,.T.);
#133=EDGE_LOOP('',(#725,#726,#727,#728));
#134=EDGE_LOOP('',(#729,#730,#731,#732,#733,#734,#735,#736));
#135=EDGE_LOOP('',(#737,#738,#739,#740,#741,#742,#743,#744));
#136=EDGE_LOOP('',(#745,#746,#747,#748));
#137=EDGE_LOOP('',(#749,#750,#751,#752));
#138=EDGE_LOOP('',(#753,#754,#755,#756));
#139=EDGE_LOOP('',(#757,#758,#759,#760));
#140=EDGE_LOOP('',(#761,#762,#763,#764));
#141=EDGE_LOOP('',(#765,#766,#767,#768));
#142=EDGE_LOOP('',(#769,#770,#771,#772));
#143=EDGE_LOOP('',(#773,#774,#775,#776,#777,#778,#779,#780,#781,#782));
#144=EDGE_LOOP('',(#783,#784,#785,#786));
#145=EDGE_LOOP('',(#787));
#146=EDGE_LOOP('',(#788,#789,#790,#791,#792,#793,#794,#795));
#147=EDGE_LOOP('',(#796));
#148=EDGE_LOOP('',(#797));
#149=EDGE_LOOP('',(#798));
#150=EDGE_LOOP('',(#799,#800,#801,#802,#803,#804,#805,#806));
#151=EDGE_LOOP('',(#807,#808,#809));
#152=EDGE_LOOP('',(#810,#811,#812,#813));
#153=EDGE_LOOP('',(#814,#815,#816));
#154=EDGE_LOOP('',(#817,#818,#819,#820));
#155=EDGE_LOOP('',(#821,#822,#823));
#156=EDGE_LOOP('',(#824,#825,#826,#827));
#157=EDGE_LOOP('',(#828,#829,#830,#831));
#158=EDGE_LOOP('',(#832,#833,#834));
#159=EDGE_LOOP('',(#835,#836,#837,#838));
#160=EDGE_LOOP('',(#839,#840,#841,#842));
#161=EDGE_LOOP('',(#843,#844,#845,#846));
#162=EDGE_LOOP('',(#847,#848,#849,#850));
#163=EDGE_LOOP('',(#851,#852,#853,#854));
#164=EDGE_LOOP('',(#855,#856,#857,#858));
#165=EDGE_LOOP('',(#859,#860,#861,#862));
#166=EDGE_LOOP('',(#863,#864,#865,#866,#867,#868,#869,#870));
#167=EDGE_LOOP('',(#871,#872,#873,#874));
#168=EDGE_LOOP('',(#875,#876,#877,#878));
#169=EDGE_LOOP('',(#879,#880,#881,#882));
#170=EDGE_LOOP('',(#883,#884,#885,#886));
#171=EDGE_LOOP('',(#887,#888,#889,#890));
#172=EDGE_LOOP('',(#891,#892,#893,#894));
#173=EDGE_LOOP('',(#895,#896,#897,#898));
#174=EDGE_LOOP('',(#899,#900,#901,#902));
#175=EDGE_LOOP('',(#903,#904,#905,#906));
#176=EDGE_LOOP('',(#907,#908,#909,#910,#911,#912,#913,#914));
#177=EDGE_LOOP('',(#915));
#178=EDGE_LOOP('',(#916));
#179=EDGE_LOOP('',(#917,#918,#919,#920,#921));
#180=EDGE_LOOP('',(#922,#923,#924,#925));
#181=EDGE_LOOP('',(#926,#927,#928,#929));
#182=EDGE_LOOP('',(#930,#931,#932,#933));
#183=EDGE_LOOP('',(#934,#935,#936,#937,#938,#939,#940,#941));
#184=EDGE_LOOP('',(#942,#943,#944,#945));
#185=EDGE_LOOP('',(#946,#947,#948,#949,#950));
#186=EDGE_LOOP('',(#951,#952,#953,#954));
#187=EDGE_LOOP('',(#955,#956,#957,#958,#959,#960,#961,#962));
#188=EDGE_LOOP('',(#963,#964,#965,#966,#967,#968,#969,#970));
#189=EDGE_LOOP('',(#971));
#190=EDGE_LOOP('',(#972));
#191=EDGE_LOOP('',(#973,#974,#975,#976));
#192=EDGE_LOOP('',(#977,#978,#979,#980));
#193=EDGE_LOOP('',(#981,#982,#983,#984));
#194=EDGE_LOOP('',(#985,#986,#987,#988));
#195=EDGE_LOOP('',(#989,#990,#991,#992));
#196=EDGE_LOOP('',(#993,#994,#995,#996));
#197=EDGE_LOOP('',(#997,#998,#999,#1000));
#198=EDGE_LOOP('',(#1001,#1002,#1003,#1004));
#199=EDGE_LOOP('',(#1005,#1006,#1007,#1008));
#200=EDGE_LOOP('',(#1009,#1010,#1011,#1012));
#201=EDGE_LOOP('',(#1013,#1014,#1015,#1016));
#202=EDGE_LOOP('',(#1017,#1018,#1019,#1020));
#203=EDGE_LOOP('',(#1021,#1022,#1023,#1024));
#204=EDGE_LOOP('',(#1025,#1026,#1027,#1028));
#205=EDGE_LOOP('',(#1029,#1030,#1031,#1032));
#206=EDGE_LOOP('',(#1033,#1034,#1035,#1036,#1037,#1038,#1039,#1040));
#207=LINE('',#1591,#317);
#208=LINE('',#1594,#318);
#209=LINE('',#1597,#319);
#210=LINE('',#1599,#320);
#211=LINE('',#1601,#321);
#212=LINE('',#1603,#322);
#213=LINE('',#1605,#323);
#214=LINE('',#1607,#324);
#215=LINE('',#1608,#325);
#216=LINE('',#1611,#326);
#217=LINE('',#1615,#327);
#218=LINE('',#1619,#328);
#219=LINE('',#1623,#329);
#220=LINE('',#1629,#330);
#221=LINE('',#1633,#331);
#222=LINE('',#1635,#332);
#223=LINE('',#1636,#333);
#224=LINE('',#1640,#334);
#225=LINE('',#1644,#335);
#226=LINE('',#1648,#336);
#227=LINE('',#1651,#337);
#228=LINE('',#1654,#338);
#229=LINE('',#1656,#339);
#230=LINE('',#1659,#340);
#231=LINE('',#1660,#341);
#232=LINE('',#1663,#342);
#233=LINE('',#1665,#343);
#234=LINE('',#1666,#344);
#235=LINE('',#1669,#345);
#236=LINE('',#1671,#346);
#237=LINE('',#1672,#347);
#238=LINE('',#1673,#348);
#239=LINE('',#1681,#349);
#240=LINE('',#1685,#350);
#241=LINE('',#1689,#351);
#242=LINE('',#1692,#352);
#243=LINE('',#1701,#353);
#244=LINE('',#1705,#354);
#245=LINE('',#1709,#355);
#246=LINE('',#1713,#356);
#247=LINE('',#1726,#357);
#248=LINE('',#1727,#358);
#249=LINE('',#1739,#359);
#250=LINE('',#1740,#360);
#251=LINE('',#1752,#361);
#252=LINE('',#1753,#362);
#253=LINE('',#1755,#363);
#254=LINE('',#1756,#364);
#255=LINE('',#1768,#365);
#256=LINE('',#1769,#366);
#257=LINE('',#1771,#367);
#258=LINE('',#1772,#368);
#259=LINE('',#1774,#369);
#260=LINE('',#1775,#370);
#261=LINE('',#1777,#371);
#262=LINE('',#1778,#372);
#263=LINE('',#1780,#373);
#264=LINE('',#1782,#374);
#265=LINE('',#1786,#375);
#266=LINE('',#1790,#376);
#267=LINE('',#1794,#377);
#268=LINE('',#1798,#378);
#269=LINE('',#1801,#379);
#270=LINE('',#1802,#380);
#271=LINE('',#1804,#381);
#272=LINE('',#1806,#382);
#273=LINE('',#1807,#383);
#274=LINE('',#1810,#384);
#275=LINE('',#1812,#385);
#276=LINE('',#1814,#386);
#277=LINE('',#1818,#387);
#278=LINE('',#1819,#388);
#279=LINE('',#1822,#389);
#280=LINE('',#1824,#390);
#281=LINE('',#1826,#391);
#282=LINE('',#1828,#392);
#283=LINE('',#1829,#393);
#284=LINE('',#1835,#394);
#285=LINE('',#1838,#395);
#286=LINE('',#1840,#396);
#287=LINE('',#1841,#397);
#288=LINE('',#1845,#398);
#289=LINE('',#1847,#399);
#290=LINE('',#1849,#400);
#291=LINE('',#1850,#401);
#292=LINE('',#1852,#402);
#293=LINE('',#1853,#403);
#294=LINE('',#1856,#404);
#295=LINE('',#1857,#405);
#296=LINE('',#1859,#406);
#297=LINE('',#1862,#407);
#298=LINE('',#1863,#408);
#299=LINE('',#1866,#409);
#300=LINE('',#1867,#410);
#301=LINE('',#1869,#411);
#302=LINE('',#1871,#412);
#303=LINE('',#1877,#413);
#304=LINE('',#1878,#414);
#305=LINE('',#1880,#415);
#306=LINE('',#1882,#416);
#307=LINE('',#1883,#417);
#308=LINE('',#1886,#418);
#309=LINE('',#1887,#419);
#310=LINE('',#1890,#420);
#311=LINE('',#1893,#421);
#312=LINE('',#1895,#422);
#313=LINE('',#1897,#423);
#314=LINE('',#1899,#424);
#315=LINE('',#1902,#425);
#316=LINE('',#1904,#426);
#317=VECTOR('',#1259,10.);
#318=VECTOR('',#1262,10.);
#319=VECTOR('',#1265,10.);
#320=VECTOR('',#1266,10.);
#321=VECTOR('',#1267,10.);
#322=VECTOR('',#1268,10.);
#323=VECTOR('',#1269,10.);
#324=VECTOR('',#1270,10.);
#325=VECTOR('',#1271,10.);
#326=VECTOR('',#1272,10.);
#327=VECTOR('',#1275,10.);
#328=VECTOR('',#1278,10.);
#329=VECTOR('',#1281,10.);
#330=VECTOR('',#1288,10.);
#331=VECTOR('',#1293,10.);
#332=VECTOR('',#1294,10.);
#333=VECTOR('',#1295,10.);
#334=VECTOR('',#1298,10.);
#335=VECTOR('',#1301,10.);
#336=VECTOR('',#1306,10.);
#337=VECTOR('',#1309,10.);
#338=VECTOR('',#1312,10.);
#339=VECTOR('',#1313,10.);
#340=VECTOR('',#1318,10.);
#341=VECTOR('',#1319,10.);
#342=VECTOR('',#1322,10.);
#343=VECTOR('',#1323,10.);
#344=VECTOR('',#1324,10.);
#345=VECTOR('',#1327,10.);
#346=VECTOR('',#1328,10.);
#347=VECTOR('',#1329,10.);
#348=VECTOR('',#1330,10.);
#349=VECTOR('',#1337,10.);
#350=VECTOR('',#1340,10.);
#351=VECTOR('',#1343,10.);
#352=VECTOR('',#1346,10.);
#353=VECTOR('',#1353,10.);
#354=VECTOR('',#1356,10.);
#355=VECTOR('',#1359,10.);
#356=VECTOR('',#1362,10.);
#357=VECTOR('',#1377,10.);
#358=VECTOR('',#1378,10.);
#359=VECTOR('',#1391,10.);
#360=VECTOR('',#1392,10.);
#361=VECTOR('',#1405,10.);
#362=VECTOR('',#1406,10.);
#363=VECTOR('',#1409,10.);
#364=VECTOR('',#1410,10.);
#365=VECTOR('',#1423,10.);
#366=VECTOR('',#1424,10.);
#367=VECTOR('',#1427,10.);
#368=VECTOR('',#1428,10.);
#369=VECTOR('',#1431,10.);
#370=VECTOR('',#1432,10.);
#371=VECTOR('',#1435,10.);
#372=VECTOR('',#1436,10.);
#373=VECTOR('',#1439,10.);
#374=VECTOR('',#1442,10.);
#375=VECTOR('',#1445,10.);
#376=VECTOR('',#1448,10.);
#377=VECTOR('',#1451,10.);
#378=VECTOR('',#1454,10.);
#379=VECTOR('',#1459,10.);
#380=VECTOR('',#1460,10.);
#381=VECTOR('',#1463,10.);
#382=VECTOR('',#1466,10.);
#383=VECTOR('',#1467,10.);
#384=VECTOR('',#1472,10.);
#385=VECTOR('',#1475,10.);
#386=VECTOR('',#1478,10.);
#387=VECTOR('',#1483,10.);
#388=VECTOR('',#1484,10.);
#389=VECTOR('',#1487,10.);
#390=VECTOR('',#1488,10.);
#391=VECTOR('',#1489,10.);
#392=VECTOR('',#1490,10.);
#393=VECTOR('',#1491,10.);
#394=VECTOR('',#1498,10.);
#395=VECTOR('',#1501,10.);
#396=VECTOR('',#1502,10.);
#397=VECTOR('',#1503,10.);
#398=VECTOR('',#1506,10.);
#399=VECTOR('',#1507,10.);
#400=VECTOR('',#1508,10.);
#401=VECTOR('',#1509,10.);
#402=VECTOR('',#1512,10.);
#403=VECTOR('',#1513,10.);
#404=VECTOR('',#1516,10.);
#405=VECTOR('',#1517,10.);
#406=VECTOR('',#1520,10.);
#407=VECTOR('',#1523,10.);
#408=VECTOR('',#1524,10.);
#409=VECTOR('',#1527,10.);
#410=VECTOR('',#1528,10.);
#411=VECTOR('',#1531,10.);
#412=VECTOR('',#1534,10.);
#413=VECTOR('',#1541,10.);
#414=VECTOR('',#1542,10.);
#415=VECTOR('',#1545,10.);
#416=VECTOR('',#1548,10.);
#417=VECTOR('',#1549,10.);
#418=VECTOR('',#1554,10.);
#419=VECTOR('',#1555,10.);
#420=VECTOR('',#1560,10.);
#421=VECTOR('',#1565,1.6);
#422=VECTOR('',#1568,1.6);
#423=VECTOR('',#1571,1.6);
#424=VECTOR('',#1574,1.6);
#425=VECTOR('',#1579,10.);
#426=VECTOR('',#1582,10.);
#427=CIRCLE('',#1144,2.);
#428=CIRCLE('',#1145,2.);
#429=CIRCLE('',#1147,1.);
#430=CIRCLE('',#1148,1.);
#431=CIRCLE('',#1149,1.);
#432=CIRCLE('',#1150,1.);
#433=CIRCLE('',#1152,2.);
#434=CIRCLE('',#1153,2.);
#435=CIRCLE('',#1166,1.6);
#436=CIRCLE('',#1167,1.);
#437=CIRCLE('',#1168,1.);
#438=CIRCLE('',#1169,1.);
#439=CIRCLE('',#1170,1.);
#440=CIRCLE('',#1171,1.6);
#441=CIRCLE('',#1172,1.6);
#442=CIRCLE('',#1173,1.6);
#443=CIRCLE('',#1179,1.99999999999999);
#444=CIRCLE('',#1180,2.);
#445=CIRCLE('',#1181,2.);
#446=CIRCLE('',#1183,2.);
#447=CIRCLE('',#1185,2.);
#448=CIRCLE('',#1186,2.);
#449=CIRCLE('',#1187,2.);
#450=CIRCLE('',#1189,2.);
#451=CIRCLE('',#1191,2.);
#452=CIRCLE('',#1192,1.99999999999999);
#453=CIRCLE('',#1193,2.);
#454=CIRCLE('',#1195,2.);
#455=CIRCLE('',#1198,2.);
#456=CIRCLE('',#1199,2.);
#457=CIRCLE('',#1200,2.);
#458=CIRCLE('',#1202,2.);
#459=CIRCLE('',#1209,1.5);
#460=CIRCLE('',#1210,1.5);
#461=CIRCLE('',#1211,1.5);
#462=CIRCLE('',#1212,1.5);
#463=CIRCLE('',#1223,1.6);
#464=CIRCLE('',#1224,1.6);
#465=CIRCLE('',#1235,1.6);
#466=CIRCLE('',#1236,1.6);
#467=VERTEX_POINT('',#1587);
#468=VERTEX_POINT('',#1588);
#469=VERTEX_POINT('',#1590);
#470=VERTEX_POINT('',#1592);
#471=VERTEX_POINT('',#1596);
#472=VERTEX_POINT('',#1598);
#473=VERTEX_POINT('',#1600);
#474=VERTEX_POINT('',#1602);
#475=VERTEX_POINT('',#1604);
#476=VERTEX_POINT('',#1606);
#477=VERTEX_POINT('',#1609);
#478=VERTEX_POINT('',#1610);
#479=VERTEX_POINT('',#1612);
#480=VERTEX_POINT('',#1614);
#481=VERTEX_POINT('',#1616);
#482=VERTEX_POINT('',#1618);
#483=VERTEX_POINT('',#1620);
#484=VERTEX_POINT('',#1622);
#485=VERTEX_POINT('',#1626);
#486=VERTEX_POINT('',#1628);
#487=VERTEX_POINT('',#1632);
#488=VERTEX_POINT('',#1634);
#489=VERTEX_POINT('',#1638);
#490=VERTEX_POINT('',#1639);
#491=VERTEX_POINT('',#1641);
#492=VERTEX_POINT('',#1643);
#493=VERTEX_POINT('',#1647);
#494=VERTEX_POINT('',#1649);
#495=VERTEX_POINT('',#1653);
#496=VERTEX_POINT('',#1655);
#497=VERTEX_POINT('',#1662);
#498=VERTEX_POINT('',#1664);
#499=VERTEX_POINT('',#1668);
#500=VERTEX_POINT('',#1670);
#501=VERTEX_POINT('',#1675);
#502=VERTEX_POINT('',#1677);
#503=VERTEX_POINT('',#1678);
#504=VERTEX_POINT('',#1680);
#505=VERTEX_POINT('',#1682);
#506=VERTEX_POINT('',#1684);
#507=VERTEX_POINT('',#1686);
#508=VERTEX_POINT('',#1688);
#509=VERTEX_POINT('',#1690);
#510=VERTEX_POINT('',#1693);
#511=VERTEX_POINT('',#1695);
#512=VERTEX_POINT('',#1697);
#513=VERTEX_POINT('',#1699);
#514=VERTEX_POINT('',#1700);
#515=VERTEX_POINT('',#1702);
#516=VERTEX_POINT('',#1704);
#517=VERTEX_POINT('',#1706);
#518=VERTEX_POINT('',#1708);
#519=VERTEX_POINT('',#1710);
#520=VERTEX_POINT('',#1712);
#521=VERTEX_POINT('',#1716);
#522=VERTEX_POINT('',#1717);
#523=VERTEX_POINT('',#1719);
#524=VERTEX_POINT('',#1723);
#525=VERTEX_POINT('',#1724);
#526=VERTEX_POINT('',#1729);
#527=VERTEX_POINT('',#1730);
#528=VERTEX_POINT('',#1732);
#529=VERTEX_POINT('',#1736);
#530=VERTEX_POINT('',#1737);
#531=VERTEX_POINT('',#1742);
#532=VERTEX_POINT('',#1743);
#533=VERTEX_POINT('',#1745);
#534=VERTEX_POINT('',#1749);
#535=VERTEX_POINT('',#1750);
#536=VERTEX_POINT('',#1758);
#537=VERTEX_POINT('',#1759);
#538=VERTEX_POINT('',#1761);
#539=VERTEX_POINT('',#1765);
#540=VERTEX_POINT('',#1766);
#541=VERTEX_POINT('',#1784);
#542=VERTEX_POINT('',#1785);
#543=VERTEX_POINT('',#1787);
#544=VERTEX_POINT('',#1789);
#545=VERTEX_POINT('',#1791);
#546=VERTEX_POINT('',#1793);
#547=VERTEX_POINT('',#1795);
#548=VERTEX_POINT('',#1797);
#549=VERTEX_POINT('',#1817);
#550=VERTEX_POINT('',#1821);
#551=VERTEX_POINT('',#1823);
#552=VERTEX_POINT('',#1825);
#553=VERTEX_POINT('',#1827);
#554=VERTEX_POINT('',#1830);
#555=VERTEX_POINT('',#1832);
#556=VERTEX_POINT('',#1837);
#557=VERTEX_POINT('',#1839);
#558=VERTEX_POINT('',#1843);
#559=VERTEX_POINT('',#1844);
#560=VERTEX_POINT('',#1846);
#561=VERTEX_POINT('',#1848);
#562=VERTEX_POINT('',#1855);
#563=VERTEX_POINT('',#1861);
#564=VERTEX_POINT('',#1865);
#565=VERTEX_POINT('',#1872);
#566=VERTEX_POINT('',#1874);
#567=EDGE_CURVE('',#467,#468,#427,.T.);
#568=EDGE_CURVE('',#468,#469,#207,.T.);
#569=EDGE_CURVE('',#469,#470,#428,.T.);
#570=EDGE_CURVE('',#470,#467,#208,.T.);
#571=EDGE_CURVE('',#468,#471,#209,.T.);
#572=EDGE_CURVE('',#471,#472,#210,.T.);
#573=EDGE_CURVE('',#472,#473,#211,.T.);
#574=EDGE_CURVE('',#473,#474,#212,.T.);
#575=EDGE_CURVE('',#474,#475,#213,.T.);
#576=EDGE_CURVE('',#476,#475,#214,.T.);
#577=EDGE_CURVE('',#469,#476,#215,.T.);
#578=EDGE_CURVE('',#477,#478,#216,.T.);
#579=EDGE_CURVE('',#479,#478,#429,.T.);
#580=EDGE_CURVE('',#479,#480,#217,.T.);
#581=EDGE_CURVE('',#481,#480,#430,.T.);
#582=EDGE_CURVE('',#481,#482,#218,.T.);
#583=EDGE_CURVE('',#483,#482,#431,.T.);
#584=EDGE_CURVE('',#483,#484,#219,.T.);
#585=EDGE_CURVE('',#477,#484,#432,.T.);
#586=EDGE_CURVE('',#475,#485,#433,.T.);
#587=EDGE_CURVE('',#485,#486,#220,.T.);
#588=EDGE_CURVE('',#486,#476,#434,.T.);
#589=EDGE_CURVE('',#487,#485,#221,.T.);
#590=EDGE_CURVE('',#488,#487,#222,.T.);
#591=EDGE_CURVE('',#486,#488,#223,.T.);
#592=EDGE_CURVE('',#489,#490,#224,.T.);
#593=EDGE_CURVE('',#490,#491,#19,.T.);
#594=EDGE_CURVE('',#491,#492,#225,.T.);
#595=EDGE_CURVE('',#492,#489,#20,.T.);
#596=EDGE_CURVE('',#492,#493,#226,.T.);
#597=EDGE_CURVE('',#493,#494,#21,.T.);
#598=EDGE_CURVE('',#494,#489,#227,.T.);
#599=EDGE_CURVE('',#495,#494,#228,.T.);
#600=EDGE_CURVE('',#493,#496,#229,.T.);
#601=EDGE_CURVE('',#496,#495,#22,.T.);
#602=EDGE_CURVE('',#490,#495,#230,.T.);
#603=EDGE_CURVE('',#496,#491,#231,.T.);
#604=EDGE_CURVE('',#490,#497,#232,.T.);
#605=EDGE_CURVE('',#498,#497,#233,.T.);
#606=EDGE_CURVE('',#495,#498,#234,.T.);
#607=EDGE_CURVE('',#489,#499,#235,.T.);
#608=EDGE_CURVE('',#500,#499,#236,.T.);
#609=EDGE_CURVE('',#500,#470,#237,.T.);
#610=EDGE_CURVE('',#497,#488,#238,.T.);
#611=EDGE_CURVE('',#501,#501,#435,.T.);
#612=EDGE_CURVE('',#502,#503,#436,.T.);
#613=EDGE_CURVE('',#504,#502,#239,.T.);
#614=EDGE_CURVE('',#505,#504,#437,.T.);
#615=EDGE_CURVE('',#506,#505,#240,.T.);
#616=EDGE_CURVE('',#507,#506,#438,.T.);
#617=EDGE_CURVE('',#508,#507,#241,.T.);
#618=EDGE_CURVE('',#509,#508,#439,.T.);
#619=EDGE_CURVE('',#503,#509,#242,.T.);
#620=EDGE_CURVE('',#510,#510,#440,.T.);
#621=EDGE_CURVE('',#511,#511,#441,.T.);
#622=EDGE_CURVE('',#512,#512,#442,.T.);
#623=EDGE_CURVE('',#513,#514,#243,.T.);
#624=EDGE_CURVE('',#515,#514,#23,.F.);
#625=EDGE_CURVE('',#515,#516,#244,.T.);
#626=EDGE_CURVE('',#517,#516,#24,.F.);
#627=EDGE_CURVE('',#517,#518,#245,.T.);
#628=EDGE_CURVE('',#519,#518,#25,.F.);
#629=EDGE_CURVE('',#519,#520,#246,.T.);
#630=EDGE_CURVE('',#513,#520,#26,.F.);
#631=EDGE_CURVE('',#521,#522,#443,.F.);
#632=EDGE_CURVE('',#523,#521,#444,.F.);
#633=EDGE_CURVE('',#522,#523,#445,.F.);
#634=EDGE_CURVE('',#524,#525,#446,.T.);
#635=EDGE_CURVE('',#525,#523,#247,.T.);
#636=EDGE_CURVE('',#521,#524,#248,.T.);
#637=EDGE_CURVE('',#526,#527,#447,.F.);
#638=EDGE_CURVE('',#528,#526,#448,.F.);
#639=EDGE_CURVE('',#527,#528,#449,.F.);
#640=EDGE_CURVE('',#529,#530,#450,.T.);
#641=EDGE_CURVE('',#530,#528,#249,.T.);
#642=EDGE_CURVE('',#526,#529,#250,.T.);
#643=EDGE_CURVE('',#531,#532,#451,.F.);
#644=EDGE_CURVE('',#533,#531,#452,.F.);
#645=EDGE_CURVE('',#532,#533,#453,.F.);
#646=EDGE_CURVE('',#534,#535,#454,.T.);
#647=EDGE_CURVE('',#535,#533,#251,.T.);
#648=EDGE_CURVE('',#531,#534,#252,.T.);
#649=EDGE_CURVE('',#522,#532,#253,.T.);
#650=EDGE_CURVE('',#533,#521,#254,.T.);
#651=EDGE_CURVE('',#536,#537,#455,.F.);
#652=EDGE_CURVE('',#538,#536,#456,.F.);
#653=EDGE_CURVE('',#537,#538,#457,.F.);
#654=EDGE_CURVE('',#539,#540,#458,.T.);
#655=EDGE_CURVE('',#540,#538,#255,.T.);
#656=EDGE_CURVE('',#536,#539,#256,.T.);
#657=EDGE_CURVE('',#532,#537,#257,.T.);
#658=EDGE_CURVE('',#538,#531,#258,.T.);
#659=EDGE_CURVE('',#537,#527,#259,.T.);
#660=EDGE_CURVE('',#528,#536,#260,.T.);
#661=EDGE_CURVE('',#527,#522,#261,.T.);
#662=EDGE_CURVE('',#523,#526,#262,.T.);
#663=EDGE_CURVE('',#524,#535,#263,.T.);
#664=EDGE_CURVE('',#534,#540,#264,.T.);
#665=EDGE_CURVE('',#541,#542,#265,.T.);
#666=EDGE_CURVE('',#543,#542,#459,.F.);
#667=EDGE_CURVE('',#543,#544,#266,.T.);
#668=EDGE_CURVE('',#545,#544,#460,.F.);
#669=EDGE_CURVE('',#545,#546,#267,.T.);
#670=EDGE_CURVE('',#547,#546,#461,.F.);
#671=EDGE_CURVE('',#547,#548,#268,.T.);
#672=EDGE_CURVE('',#541,#548,#462,.F.);
#673=EDGE_CURVE('',#548,#515,#269,.T.);
#674=EDGE_CURVE('',#514,#541,#270,.T.);
#675=EDGE_CURVE('',#516,#547,#271,.T.);
#676=EDGE_CURVE('',#542,#513,#272,.T.);
#677=EDGE_CURVE('',#520,#543,#273,.T.);
#678=EDGE_CURVE('',#546,#517,#274,.T.);
#679=EDGE_CURVE('',#518,#545,#275,.T.);
#680=EDGE_CURVE('',#544,#519,#276,.T.);
#681=EDGE_CURVE('',#549,#500,#277,.T.);
#682=EDGE_CURVE('',#467,#549,#278,.T.);
#683=EDGE_CURVE('',#487,#550,#279,.T.);
#684=EDGE_CURVE('',#550,#551,#280,.T.);
#685=EDGE_CURVE('',#551,#552,#281,.T.);
#686=EDGE_CURVE('',#552,#553,#282,.T.);
#687=EDGE_CURVE('',#553,#498,#283,.T.);
#688=EDGE_CURVE('',#554,#554,#463,.T.);
#689=EDGE_CURVE('',#555,#555,#464,.T.);
#690=EDGE_CURVE('',#474,#550,#284,.T.);
#691=EDGE_CURVE('',#556,#552,#285,.T.);
#692=EDGE_CURVE('',#556,#557,#286,.T.);
#693=EDGE_CURVE('',#553,#557,#287,.T.);
#694=EDGE_CURVE('',#558,#559,#288,.T.);
#695=EDGE_CURVE('',#560,#558,#289,.T.);
#696=EDGE_CURVE('',#560,#561,#290,.T.);
#697=EDGE_CURVE('',#559,#561,#291,.T.);
#698=EDGE_CURVE('',#561,#556,#292,.T.);
#699=EDGE_CURVE('',#557,#560,#293,.T.);
#700=EDGE_CURVE('',#562,#558,#294,.T.);
#701=EDGE_CURVE('',#494,#562,#295,.T.);
#702=EDGE_CURVE('',#473,#551,#296,.T.);
#703=EDGE_CURVE('',#563,#549,#297,.T.);
#704=EDGE_CURVE('',#471,#563,#298,.T.);
#705=EDGE_CURVE('',#472,#564,#299,.T.);
#706=EDGE_CURVE('',#564,#563,#300,.T.);
#707=EDGE_CURVE('',#559,#564,#301,.T.);
#708=EDGE_CURVE('',#499,#562,#302,.T.);
#709=EDGE_CURVE('',#565,#565,#465,.T.);
#710=EDGE_CURVE('',#566,#566,#466,.T.);
#711=EDGE_CURVE('',#504,#483,#303,.T.);
#712=EDGE_CURVE('',#482,#505,#304,.T.);
#713=EDGE_CURVE('',#484,#502,#305,.T.);
#714=EDGE_CURVE('',#506,#481,#306,.T.);
#715=EDGE_CURVE('',#480,#507,#307,.T.);
#716=EDGE_CURVE('',#508,#479,#308,.T.);
#717=EDGE_CURVE('',#478,#509,#309,.T.);
#718=EDGE_CURVE('',#503,#477,#310,.T.);
#719=EDGE_CURVE('',#566,#501,#311,.T.);
#720=EDGE_CURVE('',#555,#510,#312,.T.);
#721=EDGE_CURVE('',#554,#511,#313,.T.);
#722=EDGE_CURVE('',#565,#512,#314,.T.);
#723=EDGE_CURVE('',#539,#530,#315,.T.);
#724=EDGE_CURVE('',#529,#525,#316,.T.);
#725=ORIENTED_EDGE('',*,*,#567,.T.);
#726=ORIENTED_EDGE('',*,*,#568,.T.);
#727=ORIENTED_EDGE('',*,*,#569,.T.);
#728=ORIENTED_EDGE('',*,*,#570,.T.);
#729=ORIENTED_EDGE('',*,*,#568,.F.);
#730=ORIENTED_EDGE('',*,*,#571,.T.);
#731=ORIENTED_EDGE('',*,*,#572,.T.);
#732=ORIENTED_EDGE('',*,*,#573,.T.);
#733=ORIENTED_EDGE('',*,*,#574,.T.);
#734=ORIENTED_EDGE('',*,*,#575,.T.);
#735=ORIENTED_EDGE('',*,*,#576,.F.);
#736=ORIENTED_EDGE('',*,*,#577,.F.);
#737=ORIENTED_EDGE('',*,*,#578,.T.);
#738=ORIENTED_EDGE('',*,*,#579,.F.);
#739=ORIENTED_EDGE('',*,*,#580,.T.);
#740=ORIENTED_EDGE('',*,*,#581,.F.);
#741=ORIENTED_EDGE('',*,*,#582,.T.);
#742=ORIENTED_EDGE('',*,*,#583,.F.);
#743=ORIENTED_EDGE('',*,*,#584,.T.);
#744=ORIENTED_EDGE('',*,*,#585,.F.);
#745=ORIENTED_EDGE('',*,*,#586,.T.);
#746=ORIENTED_EDGE('',*,*,#587,.T.);
#747=ORIENTED_EDGE('',*,*,#588,.T.);
#748=ORIENTED_EDGE('',*,*,#576,.T.);
#749=ORIENTED_EDGE('',*,*,#587,.F.);
#750=ORIENTED_EDGE('',*,*,#589,.F.);
#751=ORIENTED_EDGE('',*,*,#590,.F.);
#752=ORIENTED_EDGE('',*,*,#591,.F.);
#753=ORIENTED_EDGE('',*,*,#592,.T.);
#754=ORIENTED_EDGE('',*,*,#593,.T.);
#755=ORIENTED_EDGE('',*,*,#594,.T.);
#756=ORIENTED_EDGE('',*,*,#595,.T.);
#757=ORIENTED_EDGE('',*,*,#596,.T.);
#758=ORIENTED_EDGE('',*,*,#597,.T.);
#759=ORIENTED_EDGE('',*,*,#598,.T.);
#760=ORIENTED_EDGE('',*,*,#595,.F.);
#761=ORIENTED_EDGE('',*,*,#599,.T.);
#762=ORIENTED_EDGE('',*,*,#597,.F.);
#763=ORIENTED_EDGE('',*,*,#600,.T.);
#764=ORIENTED_EDGE('',*,*,#601,.T.);
#765=ORIENTED_EDGE('',*,*,#602,.T.);
#766=ORIENTED_EDGE('',*,*,#601,.F.);
#767=ORIENTED_EDGE('',*,*,#603,.T.);
#768=ORIENTED_EDGE('',*,*,#593,.F.);
#769=ORIENTED_EDGE('',*,*,#602,.F.);
#770=ORIENTED_EDGE('',*,*,#604,.T.);
#771=ORIENTED_EDGE('',*,*,#605,.F.);
#772=ORIENTED_EDGE('',*,*,#606,.F.);
#773=ORIENTED_EDGE('',*,*,#592,.F.);
#774=ORIENTED_EDGE('',*,*,#607,.T.);
#775=ORIENTED_EDGE('',*,*,#608,.F.);
#776=ORIENTED_EDGE('',*,*,#609,.T.);
#777=ORIENTED_EDGE('',*,*,#569,.F.);
#778=ORIENTED_EDGE('',*,*,#577,.T.);
#779=ORIENTED_EDGE('',*,*,#588,.F.);
#780=ORIENTED_EDGE('',*,*,#591,.T.);
#781=ORIENTED_EDGE('',*,*,#610,.F.);
#782=ORIENTED_EDGE('',*,*,#604,.F.);
#783=ORIENTED_EDGE('',*,*,#594,.F.);
#784=ORIENTED_EDGE('',*,*,#603,.F.);
#785=ORIENTED_EDGE('',*,*,#600,.F.);
#786=ORIENTED_EDGE('',*,*,#596,.F.);
#787=ORIENTED_EDGE('',*,*,#611,.F.);
#788=ORIENTED_EDGE('',*,*,#612,.F.);
#789=ORIENTED_EDGE('',*,*,#613,.F.);
#790=ORIENTED_EDGE('',*,*,#614,.F.);
#791=ORIENTED_EDGE('',*,*,#615,.F.);
#792=ORIENTED_EDGE('',*,*,#616,.F.);
#793=ORIENTED_EDGE('',*,*,#617,.F.);
#794=ORIENTED_EDGE('',*,*,#618,.F.);
#795=ORIENTED_EDGE('',*,*,#619,.F.);
#796=ORIENTED_EDGE('',*,*,#620,.F.);
#797=ORIENTED_EDGE('',*,*,#621,.F.);
#798=ORIENTED_EDGE('',*,*,#622,.F.);
#799=ORIENTED_EDGE('',*,*,#623,.T.);
#800=ORIENTED_EDGE('',*,*,#624,.F.);
#801=ORIENTED_EDGE('',*,*,#625,.T.);
#802=ORIENTED_EDGE('',*,*,#626,.F.);
#803=ORIENTED_EDGE('',*,*,#627,.T.);
#804=ORIENTED_EDGE('',*,*,#628,.F.);
#805=ORIENTED_EDGE('',*,*,#629,.T.);
#806=ORIENTED_EDGE('',*,*,#630,.F.);
#807=ORIENTED_EDGE('',*,*,#631,.F.);
#808=ORIENTED_EDGE('',*,*,#632,.F.);
#809=ORIENTED_EDGE('',*,*,#633,.F.);
#810=ORIENTED_EDGE('',*,*,#634,.T.);
#811=ORIENTED_EDGE('',*,*,#635,.T.);
#812=ORIENTED_EDGE('',*,*,#632,.T.);
#813=ORIENTED_EDGE('',*,*,#636,.T.);
#814=ORIENTED_EDGE('',*,*,#637,.F.);
#815=ORIENTED_EDGE('',*,*,#638,.F.);
#816=ORIENTED_EDGE('',*,*,#639,.F.);
#817=ORIENTED_EDGE('',*,*,#640,.T.);
#818=ORIENTED_EDGE('',*,*,#641,.T.);
#819=ORIENTED_EDGE('',*,*,#638,.T.);
#820=ORIENTED_EDGE('',*,*,#642,.T.);
#821=ORIENTED_EDGE('',*,*,#643,.F.);
#822=ORIENTED_EDGE('',*,*,#644,.F.);
#823=ORIENTED_EDGE('',*,*,#645,.F.);
#824=ORIENTED_EDGE('',*,*,#646,.T.);
#825=ORIENTED_EDGE('',*,*,#647,.T.);
#826=ORIENTED_EDGE('',*,*,#644,.T.);
#827=ORIENTED_EDGE('',*,*,#648,.T.);
#828=ORIENTED_EDGE('',*,*,#631,.T.);
#829=ORIENTED_EDGE('',*,*,#649,.T.);
#830=ORIENTED_EDGE('',*,*,#645,.T.);
#831=ORIENTED_EDGE('',*,*,#650,.T.);
#832=ORIENTED_EDGE('',*,*,#651,.F.);
#833=ORIENTED_EDGE('',*,*,#652,.F.);
#834=ORIENTED_EDGE('',*,*,#653,.F.);
#835=ORIENTED_EDGE('',*,*,#654,.T.);
#836=ORIENTED_EDGE('',*,*,#655,.T.);
#837=ORIENTED_EDGE('',*,*,#652,.T.);
#838=ORIENTED_EDGE('',*,*,#656,.T.);
#839=ORIENTED_EDGE('',*,*,#643,.T.);
#840=ORIENTED_EDGE('',*,*,#657,.T.);
#841=ORIENTED_EDGE('',*,*,#653,.T.);
#842=ORIENTED_EDGE('',*,*,#658,.T.);
#843=ORIENTED_EDGE('',*,*,#651,.T.);
#844=ORIENTED_EDGE('',*,*,#659,.T.);
#845=ORIENTED_EDGE('',*,*,#639,.T.);
#846=ORIENTED_EDGE('',*,*,#660,.T.);
#847=ORIENTED_EDGE('',*,*,#637,.T.);
#848=ORIENTED_EDGE('',*,*,#661,.T.);
#849=ORIENTED_EDGE('',*,*,#633,.T.);
#850=ORIENTED_EDGE('',*,*,#662,.T.);
#851=ORIENTED_EDGE('',*,*,#636,.F.);
#852=ORIENTED_EDGE('',*,*,#650,.F.);
#853=ORIENTED_EDGE('',*,*,#647,.F.);
#854=ORIENTED_EDGE('',*,*,#663,.F.);
#855=ORIENTED_EDGE('',*,*,#648,.F.);
#856=ORIENTED_EDGE('',*,*,#658,.F.);
#857=ORIENTED_EDGE('',*,*,#655,.F.);
#858=ORIENTED_EDGE('',*,*,#664,.F.);
#859=ORIENTED_EDGE('',*,*,#649,.F.);
#860=ORIENTED_EDGE('',*,*,#661,.F.);
#861=ORIENTED_EDGE('',*,*,#659,.F.);
#862=ORIENTED_EDGE('',*,*,#657,.F.);
#863=ORIENTED_EDGE('',*,*,#665,.T.);
#864=ORIENTED_EDGE('',*,*,#666,.F.);
#865=ORIENTED_EDGE('',*,*,#667,.T.);
#866=ORIENTED_EDGE('',*,*,#668,.F.);
#867=ORIENTED_EDGE('',*,*,#669,.T.);
#868=ORIENTED_EDGE('',*,*,#670,.F.);
#869=ORIENTED_EDGE('',*,*,#671,.T.);
#870=ORIENTED_EDGE('',*,*,#672,.F.);
#871=ORIENTED_EDGE('',*,*,#672,.T.);
#872=ORIENTED_EDGE('',*,*,#673,.T.);
#873=ORIENTED_EDGE('',*,*,#624,.T.);
#874=ORIENTED_EDGE('',*,*,#674,.T.);
#875=ORIENTED_EDGE('',*,*,#673,.F.);
#876=ORIENTED_EDGE('',*,*,#671,.F.);
#877=ORIENTED_EDGE('',*,*,#675,.F.);
#878=ORIENTED_EDGE('',*,*,#625,.F.);
#879=ORIENTED_EDGE('',*,*,#666,.T.);
#880=ORIENTED_EDGE('',*,*,#676,.T.);
#881=ORIENTED_EDGE('',*,*,#630,.T.);
#882=ORIENTED_EDGE('',*,*,#677,.T.);
#883=ORIENTED_EDGE('',*,*,#674,.F.);
#884=ORIENTED_EDGE('',*,*,#623,.F.);
#885=ORIENTED_EDGE('',*,*,#676,.F.);
#886=ORIENTED_EDGE('',*,*,#665,.F.);
#887=ORIENTED_EDGE('',*,*,#670,.T.);
#888=ORIENTED_EDGE('',*,*,#678,.T.);
#889=ORIENTED_EDGE('',*,*,#626,.T.);
#890=ORIENTED_EDGE('',*,*,#675,.T.);
#891=ORIENTED_EDGE('',*,*,#678,.F.);
#892=ORIENTED_EDGE('',*,*,#669,.F.);
#893=ORIENTED_EDGE('',*,*,#679,.F.);
#894=ORIENTED_EDGE('',*,*,#627,.F.);
#895=ORIENTED_EDGE('',*,*,#668,.T.);
#896=ORIENTED_EDGE('',*,*,#680,.T.);
#897=ORIENTED_EDGE('',*,*,#628,.T.);
#898=ORIENTED_EDGE('',*,*,#679,.T.);
#899=ORIENTED_EDGE('',*,*,#677,.F.);
#900=ORIENTED_EDGE('',*,*,#629,.F.);
#901=ORIENTED_EDGE('',*,*,#680,.F.);
#902=ORIENTED_EDGE('',*,*,#667,.F.);
#903=ORIENTED_EDGE('',*,*,#570,.F.);
#904=ORIENTED_EDGE('',*,*,#609,.F.);
#905=ORIENTED_EDGE('',*,*,#681,.F.);
#906=ORIENTED_EDGE('',*,*,#682,.F.);
#907=ORIENTED_EDGE('',*,*,#590,.T.);
#908=ORIENTED_EDGE('',*,*,#683,.T.);
#909=ORIENTED_EDGE('',*,*,#684,.T.);
#910=ORIENTED_EDGE('',*,*,#685,.T.);
#911=ORIENTED_EDGE('',*,*,#686,.T.);
#912=ORIENTED_EDGE('',*,*,#687,.T.);
#913=ORIENTED_EDGE('',*,*,#605,.T.);
#914=ORIENTED_EDGE('',*,*,#610,.T.);
#915=ORIENTED_EDGE('',*,*,#688,.T.);
#916=ORIENTED_EDGE('',*,*,#689,.T.);
#917=ORIENTED_EDGE('',*,*,#589,.T.);
#918=ORIENTED_EDGE('',*,*,#586,.F.);
#919=ORIENTED_EDGE('',*,*,#575,.F.);
#920=ORIENTED_EDGE('',*,*,#690,.T.);
#921=ORIENTED_EDGE('',*,*,#683,.F.);
#922=ORIENTED_EDGE('',*,*,#686,.F.);
#923=ORIENTED_EDGE('',*,*,#691,.F.);
#924=ORIENTED_EDGE('',*,*,#692,.T.);
#925=ORIENTED_EDGE('',*,*,#693,.F.);
#926=ORIENTED_EDGE('',*,*,#694,.F.);
#927=ORIENTED_EDGE('',*,*,#695,.F.);
#928=ORIENTED_EDGE('',*,*,#696,.T.);
#929=ORIENTED_EDGE('',*,*,#697,.F.);
#930=ORIENTED_EDGE('',*,*,#698,.F.);
#931=ORIENTED_EDGE('',*,*,#696,.F.);
#932=ORIENTED_EDGE('',*,*,#699,.F.);
#933=ORIENTED_EDGE('',*,*,#692,.F.);
#934=ORIENTED_EDGE('',*,*,#599,.F.);
#935=ORIENTED_EDGE('',*,*,#606,.T.);
#936=ORIENTED_EDGE('',*,*,#687,.F.);
#937=ORIENTED_EDGE('',*,*,#693,.T.);
#938=ORIENTED_EDGE('',*,*,#699,.T.);
#939=ORIENTED_EDGE('',*,*,#695,.T.);
#940=ORIENTED_EDGE('',*,*,#700,.F.);
#941=ORIENTED_EDGE('',*,*,#701,.F.);
#942=ORIENTED_EDGE('',*,*,#690,.F.);
#943=ORIENTED_EDGE('',*,*,#574,.F.);
#944=ORIENTED_EDGE('',*,*,#702,.T.);
#945=ORIENTED_EDGE('',*,*,#684,.F.);
#946=ORIENTED_EDGE('',*,*,#682,.T.);
#947=ORIENTED_EDGE('',*,*,#703,.F.);
#948=ORIENTED_EDGE('',*,*,#704,.F.);
#949=ORIENTED_EDGE('',*,*,#571,.F.);
#950=ORIENTED_EDGE('',*,*,#567,.F.);
#951=ORIENTED_EDGE('',*,*,#705,.F.);
#952=ORIENTED_EDGE('',*,*,#572,.F.);
#953=ORIENTED_EDGE('',*,*,#704,.T.);
#954=ORIENTED_EDGE('',*,*,#706,.F.);
#955=ORIENTED_EDGE('',*,*,#702,.F.);
#956=ORIENTED_EDGE('',*,*,#573,.F.);
#957=ORIENTED_EDGE('',*,*,#705,.T.);
#958=ORIENTED_EDGE('',*,*,#707,.F.);
#959=ORIENTED_EDGE('',*,*,#697,.T.);
#960=ORIENTED_EDGE('',*,*,#698,.T.);
#961=ORIENTED_EDGE('',*,*,#691,.T.);
#962=ORIENTED_EDGE('',*,*,#685,.F.);
#963=ORIENTED_EDGE('',*,*,#681,.T.);
#964=ORIENTED_EDGE('',*,*,#608,.T.);
#965=ORIENTED_EDGE('',*,*,#708,.T.);
#966=ORIENTED_EDGE('',*,*,#700,.T.);
#967=ORIENTED_EDGE('',*,*,#694,.T.);
#968=ORIENTED_EDGE('',*,*,#707,.T.);
#969=ORIENTED_EDGE('',*,*,#706,.T.);
#970=ORIENTED_EDGE('',*,*,#703,.T.);
#971=ORIENTED_EDGE('',*,*,#709,.T.);
#972=ORIENTED_EDGE('',*,*,#710,.T.);
#973=ORIENTED_EDGE('',*,*,#614,.T.);
#974=ORIENTED_EDGE('',*,*,#711,.T.);
#975=ORIENTED_EDGE('',*,*,#583,.T.);
#976=ORIENTED_EDGE('',*,*,#712,.T.);
#977=ORIENTED_EDGE('',*,*,#711,.F.);
#978=ORIENTED_EDGE('',*,*,#613,.T.);
#979=ORIENTED_EDGE('',*,*,#713,.F.);
#980=ORIENTED_EDGE('',*,*,#584,.F.);
#981=ORIENTED_EDGE('',*,*,#616,.T.);
#982=ORIENTED_EDGE('',*,*,#714,.T.);
#983=ORIENTED_EDGE('',*,*,#581,.T.);
#984=ORIENTED_EDGE('',*,*,#715,.T.);
#985=ORIENTED_EDGE('',*,*,#712,.F.);
#986=ORIENTED_EDGE('',*,*,#582,.F.);
#987=ORIENTED_EDGE('',*,*,#714,.F.);
#988=ORIENTED_EDGE('',*,*,#615,.T.);
#989=ORIENTED_EDGE('',*,*,#618,.T.);
#990=ORIENTED_EDGE('',*,*,#716,.T.);
#991=ORIENTED_EDGE('',*,*,#579,.T.);
#992=ORIENTED_EDGE('',*,*,#717,.T.);
#993=ORIENTED_EDGE('',*,*,#715,.F.);
#994=ORIENTED_EDGE('',*,*,#580,.F.);
#995=ORIENTED_EDGE('',*,*,#716,.F.);
#996=ORIENTED_EDGE('',*,*,#617,.T.);
#997=ORIENTED_EDGE('',*,*,#612,.T.);
#998=ORIENTED_EDGE('',*,*,#718,.T.);
#999=ORIENTED_EDGE('',*,*,#585,.T.);
#1000=ORIENTED_EDGE('',*,*,#713,.T.);
#1001=ORIENTED_EDGE('',*,*,#717,.F.);
#1002=ORIENTED_EDGE('',*,*,#578,.F.);
#1003=ORIENTED_EDGE('',*,*,#718,.F.);
#1004=ORIENTED_EDGE('',*,*,#619,.T.);
#1005=ORIENTED_EDGE('',*,*,#710,.F.);
#1006=ORIENTED_EDGE('',*,*,#719,.T.);
#1007=ORIENTED_EDGE('',*,*,#611,.T.);
#1008=ORIENTED_EDGE('',*,*,#719,.F.);
#1009=ORIENTED_EDGE('',*,*,#689,.F.);
#1010=ORIENTED_EDGE('',*,*,#720,.T.);
#1011=ORIENTED_EDGE('',*,*,#620,.T.);
#1012=ORIENTED_EDGE('',*,*,#720,.F.);
#1013=ORIENTED_EDGE('',*,*,#688,.F.);
#1014=ORIENTED_EDGE('',*,*,#721,.T.);
#1015=ORIENTED_EDGE('',*,*,#621,.T.);
#1016=ORIENTED_EDGE('',*,*,#721,.F.);
#1017=ORIENTED_EDGE('',*,*,#709,.F.);
#1018=ORIENTED_EDGE('',*,*,#722,.T.);
#1019=ORIENTED_EDGE('',*,*,#622,.T.);
#1020=ORIENTED_EDGE('',*,*,#722,.F.);
#1021=ORIENTED_EDGE('',*,*,#598,.F.);
#1022=ORIENTED_EDGE('',*,*,#701,.T.);
#1023=ORIENTED_EDGE('',*,*,#708,.F.);
#1024=ORIENTED_EDGE('',*,*,#607,.F.);
#1025=ORIENTED_EDGE('',*,*,#641,.F.);
#1026=ORIENTED_EDGE('',*,*,#723,.F.);
#1027=ORIENTED_EDGE('',*,*,#656,.F.);
#1028=ORIENTED_EDGE('',*,*,#660,.F.);
#1029=ORIENTED_EDGE('',*,*,#635,.F.);
#1030=ORIENTED_EDGE('',*,*,#724,.F.);
#1031=ORIENTED_EDGE('',*,*,#642,.F.);
#1032=ORIENTED_EDGE('',*,*,#662,.F.);
#1033=ORIENTED_EDGE('',*,*,#634,.F.);
#1034=ORIENTED_EDGE('',*,*,#663,.T.);
#1035=ORIENTED_EDGE('',*,*,#646,.F.);
#1036=ORIENTED_EDGE('',*,*,#664,.T.);
#1037=ORIENTED_EDGE('',*,*,#654,.F.);
#1038=ORIENTED_EDGE('',*,*,#723,.T.);
#1039=ORIENTED_EDGE('',*,*,#640,.F.);
#1040=ORIENTED_EDGE('',*,*,#724,.T.);
#1041=CYLINDRICAL_SURFACE('',#1143,2.);
#1042=CYLINDRICAL_SURFACE('',#1151,2.);
#1043=CYLINDRICAL_SURFACE('',#1155,1.5);
#1044=CYLINDRICAL_SURFACE('',#1158,1.5);
#1045=CYLINDRICAL_SURFACE('',#1160,1.5);
#1046=CYLINDRICAL_SURFACE('',#1162,1.5);
#1047=CYLINDRICAL_SURFACE('',#1182,2.);
#1048=CYLINDRICAL_SURFACE('',#1188,2.);
#1049=CYLINDRICAL_SURFACE('',#1194,2.);
#1050=CYLINDRICAL_SURFACE('',#1196,2.);
#1051=CYLINDRICAL_SURFACE('',#1201,2.);
#1052=CYLINDRICAL_SURFACE('',#1203,2.);
#1053=CYLINDRICAL_SURFACE('',#1204,2.);
#1054=CYLINDRICAL_SURFACE('',#1205,2.);
#1055=CYLINDRICAL_SURFACE('',#1213,1.5);
#1056=CYLINDRICAL_SURFACE('',#1215,1.5);
#1057=CYLINDRICAL_SURFACE('',#1217,1.5);
#1058=CYLINDRICAL_SURFACE('',#1219,1.5);
#1059=CYLINDRICAL_SURFACE('',#1237,1.);
#1060=CYLINDRICAL_SURFACE('',#1239,1.);
#1061=CYLINDRICAL_SURFACE('',#1241,1.);
#1062=CYLINDRICAL_SURFACE('',#1243,1.);
#1063=CYLINDRICAL_SURFACE('',#1245,1.6);
#1064=CYLINDRICAL_SURFACE('',#1246,1.6);
#1065=CYLINDRICAL_SURFACE('',#1247,1.6);
#1066=CYLINDRICAL_SURFACE('',#1248,1.6);
#1067=ADVANCED_FACE('',(#71),#1041,.F.);
#1068=ADVANCED_FACE('',(#72,#27),#39,.T.);
#1069=ADVANCED_FACE('',(#73),#1042,.F.);
#1070=ADVANCED_FACE('',(#74),#40,.F.);
#1071=ADVANCED_FACE('',(#75),#1043,.T.);
#1072=ADVANCED_FACE('',(#76),#1044,.T.);
#1073=ADVANCED_FACE('',(#77),#1045,.T.);
#1074=ADVANCED_FACE('',(#78),#1046,.T.);
#1075=ADVANCED_FACE('',(#79),#41,.T.);
#1076=ADVANCED_FACE('',(#80),#42,.T.);
#1077=ADVANCED_FACE('',(#81,#28,#29,#30,#31,#32,#33),#43,.F.);
#1078=ADVANCED_FACE('',(#82),#15,.T.);
#1079=ADVANCED_FACE('',(#83),#1047,.T.);
#1080=ADVANCED_FACE('',(#84),#16,.T.);
#1081=ADVANCED_FACE('',(#85),#1048,.T.);
#1082=ADVANCED_FACE('',(#86),#17,.T.);
#1083=ADVANCED_FACE('',(#87),#1049,.T.);
#1084=ADVANCED_FACE('',(#88),#1050,.T.);
#1085=ADVANCED_FACE('',(#89),#18,.T.);
#1086=ADVANCED_FACE('',(#90),#1051,.T.);
#1087=ADVANCED_FACE('',(#91),#1052,.T.);
#1088=ADVANCED_FACE('',(#92),#1053,.T.);
#1089=ADVANCED_FACE('',(#93),#1054,.T.);
#1090=ADVANCED_FACE('',(#94),#44,.T.);
#1091=ADVANCED_FACE('',(#95),#45,.T.);
#1092=ADVANCED_FACE('',(#96,#34),#46,.T.);
#1093=ADVANCED_FACE('',(#97),#1055,.T.);
#1094=ADVANCED_FACE('',(#98),#47,.T.);
#1095=ADVANCED_FACE('',(#99),#1056,.T.);
#1096=ADVANCED_FACE('',(#100),#48,.T.);
#1097=ADVANCED_FACE('',(#101),#1057,.T.);
#1098=ADVANCED_FACE('',(#102),#49,.T.);
#1099=ADVANCED_FACE('',(#103),#1058,.T.);
#1100=ADVANCED_FACE('',(#104),#50,.T.);
#1101=ADVANCED_FACE('',(#105),#51,.F.);
#1102=ADVANCED_FACE('',(#106,#35,#36),#52,.T.);
#1103=ADVANCED_FACE('',(#107),#53,.T.);
#1104=ADVANCED_FACE('',(#108),#54,.F.);
#1105=ADVANCED_FACE('',(#109),#55,.F.);
#1106=ADVANCED_FACE('',(#110),#56,.F.);
#1107=ADVANCED_FACE('',(#111),#57,.T.);
#1108=ADVANCED_FACE('',(#112),#58,.T.);
#1109=ADVANCED_FACE('',(#113),#59,.T.);
#1110=ADVANCED_FACE('',(#114),#60,.T.);
#1111=ADVANCED_FACE('',(#115),#61,.T.);
#1112=ADVANCED_FACE('',(#116,#37,#38),#62,.T.);
#1113=ADVANCED_FACE('',(#117),#1059,.F.);
#1114=ADVANCED_FACE('',(#118),#63,.T.);
#1115=ADVANCED_FACE('',(#119),#1060,.F.);
#1116=ADVANCED_FACE('',(#120),#64,.T.);
#1117=ADVANCED_FACE('',(#121),#1061,.F.);
#1118=ADVANCED_FACE('',(#122),#65,.T.);
#1119=ADVANCED_FACE('',(#123),#1062,.F.);
#1120=ADVANCED_FACE('',(#124),#66,.T.);
#1121=ADVANCED_FACE('',(#125),#1063,.F.);
#1122=ADVANCED_FACE('',(#126),#1064,.F.);
#1123=ADVANCED_FACE('',(#127),#1065,.F.);
#1124=ADVANCED_FACE('',(#128),#1066,.F.);
#1125=ADVANCED_FACE('',(#129),#67,.T.);
#1126=ADVANCED_FACE('',(#130),#68,.T.);
#1127=ADVANCED_FACE('',(#131),#69,.T.);
#1128=ADVANCED_FACE('',(#132),#70,.F.);
#1129=CLOSED_SHELL('',(#1067,#1068,#1069,#1070,#1071,#1072,#1073,#1074,
#1075,#1076,#1077,#1078,#1079,#1080,#1081,#1082,#1083,#1084,#1085,#1086,
#1087,#1088,#1089,#1090,#1091,#1092,#1093,#1094,#1095,#1096,#1097,#1098,
#1099,#1100,#1101,#1102,#1103,#1104,#1105,#1106,#1107,#1108,#1109,#1110,
#1111,#1112,#1113,#1114,#1115,#1116,#1117,#1118,#1119,#1120,#1121,#1122,
#1123,#1124,#1125,#1126,#1127,#1128));
#1130=DERIVED_UNIT_ELEMENT(#1132,1.);
#1131=DERIVED_UNIT_ELEMENT(#1911,-3.);
#1132=(
MASS_UNIT()
NAMED_UNIT(*)
SI_UNIT(.KILO.,.GRAM.)
);
#1133=DERIVED_UNIT((#1130,#1131));
#1134=MEASURE_REPRESENTATION_ITEM('density measure',
POSITIVE_RATIO_MEASURE(1060.),#1133);
#1135=PROPERTY_DEFINITION_REPRESENTATION(#1140,#1137);
#1136=PROPERTY_DEFINITION_REPRESENTATION(#1141,#1138);
#1137=REPRESENTATION('material name',(#1139),#1908);
#1138=REPRESENTATION('density',(#1134),#1908);
#1139=DESCRIPTIVE_REPRESENTATION_ITEM('ABS Plastic','ABS Plastic');
#1140=PROPERTY_DEFINITION('material property','material name',#1918);
#1141=PROPERTY_DEFINITION('material property','density of part',#1918);
#1142=AXIS2_PLACEMENT_3D('',#1585,#1253,#1254);
#1143=AXIS2_PLACEMENT_3D('',#1586,#1255,#1256);
#1144=AXIS2_PLACEMENT_3D('',#1589,#1257,#1258);
#1145=AXIS2_PLACEMENT_3D('',#1593,#1260,#1261);
#1146=AXIS2_PLACEMENT_3D('',#1595,#1263,#1264);
#1147=AXIS2_PLACEMENT_3D('',#1613,#1273,#1274);
#1148=AXIS2_PLACEMENT_3D('',#1617,#1276,#1277);
#1149=AXIS2_PLACEMENT_3D('',#1621,#1279,#1280);
#1150=AXIS2_PLACEMENT_3D('',#1624,#1282,#1283);
#1151=AXIS2_PLACEMENT_3D('',#1625,#1284,#1285);
#1152=AXIS2_PLACEMENT_3D('',#1627,#1286,#1287);
#1153=AXIS2_PLACEMENT_3D('',#1630,#1289,#1290);
#1154=AXIS2_PLACEMENT_3D('',#1631,#1291,#1292);
#1155=AXIS2_PLACEMENT_3D('',#1637,#1296,#1297);
#1156=AXIS2_PLACEMENT_3D('',#1642,#1299,#1300);
#1157=AXIS2_PLACEMENT_3D('',#1645,#1302,#1303);
#1158=AXIS2_PLACEMENT_3D('',#1646,#1304,#1305);
#1159=AXIS2_PLACEMENT_3D('',#1650,#1307,#1308);
#1160=AXIS2_PLACEMENT_3D('',#1652,#1310,#1311);
#1161=AXIS2_PLACEMENT_3D('',#1657,#1314,#1315);
#1162=AXIS2_PLACEMENT_3D('',#1658,#1316,#1317);
#1163=AXIS2_PLACEMENT_3D('',#1661,#1320,#1321);
#1164=AXIS2_PLACEMENT_3D('',#1667,#1325,#1326);
#1165=AXIS2_PLACEMENT_3D('',#1674,#1331,#1332);
#1166=AXIS2_PLACEMENT_3D('',#1676,#1333,#1334);
#1167=AXIS2_PLACEMENT_3D('',#1679,#1335,#1336);
#1168=AXIS2_PLACEMENT_3D('',#1683,#1338,#1339);
#1169=AXIS2_PLACEMENT_3D('',#1687,#1341,#1342);
#1170=AXIS2_PLACEMENT_3D('',#1691,#1344,#1345);
#1171=AXIS2_PLACEMENT_3D('',#1694,#1347,#1348);
#1172=AXIS2_PLACEMENT_3D('',#1696,#1349,#1350);
#1173=AXIS2_PLACEMENT_3D('',#1698,#1351,#1352);
#1174=AXIS2_PLACEMENT_3D('',#1703,#1354,#1355);
#1175=AXIS2_PLACEMENT_3D('',#1707,#1357,#1358);
#1176=AXIS2_PLACEMENT_3D('',#1711,#1360,#1361);
#1177=AXIS2_PLACEMENT_3D('',#1714,#1363,#1364);
#1178=AXIS2_PLACEMENT_3D('',#1715,#1365,#1366);
#1179=AXIS2_PLACEMENT_3D('',#1718,#1367,#1368);
#1180=AXIS2_PLACEMENT_3D('',#1720,#1369,#1370);
#1181=AXIS2_PLACEMENT_3D('',#1721,#1371,#1372);
#1182=AXIS2_PLACEMENT_3D('',#1722,#1373,#1374);
#1183=AXIS2_PLACEMENT_3D('',#1725,#1375,#1376);
#1184=AXIS2_PLACEMENT_3D('',#1728,#1379,#1380);
#1185=AXIS2_PLACEMENT_3D('',#1731,#1381,#1382);
#1186=AXIS2_PLACEMENT_3D('',#1733,#1383,#1384);
#1187=AXIS2_PLACEMENT_3D('',#1734,#1385,#1386);
#1188=AXIS2_PLACEMENT_3D('',#1735,#1387,#1388);
#1189=AXIS2_PLACEMENT_3D('',#1738,#1389,#1390);
#1190=AXIS2_PLACEMENT_3D('',#1741,#1393,#1394);
#1191=AXIS2_PLACEMENT_3D('',#1744,#1395,#1396);
#1192=AXIS2_PLACEMENT_3D('',#1746,#1397,#1398);
#1193=AXIS2_PLACEMENT_3D('',#1747,#1399,#1400);
#1194=AXIS2_PLACEMENT_3D('',#1748,#1401,#1402);
#1195=AXIS2_PLACEMENT_3D('',#1751,#1403,#1404);
#1196=AXIS2_PLACEMENT_3D('',#1754,#1407,#1408);
#1197=AXIS2_PLACEMENT_3D('',#1757,#1411,#1412);
#1198=AXIS2_PLACEMENT_3D('',#1760,#1413,#1414);
#1199=AXIS2_PLACEMENT_3D('',#1762,#1415,#1416);
#1200=AXIS2_PLACEMENT_3D('',#1763,#1417,#1418);
#1201=AXIS2_PLACEMENT_3D('',#1764,#1419,#1420);
#1202=AXIS2_PLACEMENT_3D('',#1767,#1421,#1422);
#1203=AXIS2_PLACEMENT_3D('',#1770,#1425,#1426);
#1204=AXIS2_PLACEMENT_3D('',#1773,#1429,#1430);
#1205=AXIS2_PLACEMENT_3D('',#1776,#1433,#1434);
#1206=AXIS2_PLACEMENT_3D('',#1779,#1437,#1438);
#1207=AXIS2_PLACEMENT_3D('',#1781,#1440,#1441);
#1208=AXIS2_PLACEMENT_3D('',#1783,#1443,#1444);
#1209=AXIS2_PLACEMENT_3D('',#1788,#1446,#1447);
#1210=AXIS2_PLACEMENT_3D('',#1792,#1449,#1450);
#1211=AXIS2_PLACEMENT_3D('',#1796,#1452,#1453);
#1212=AXIS2_PLACEMENT_3D('',#1799,#1455,#1456);
#1213=AXIS2_PLACEMENT_3D('',#1800,#1457,#1458);
#1214=AXIS2_PLACEMENT_3D('',#1803,#1461,#1462);
#1215=AXIS2_PLACEMENT_3D('',#1805,#1464,#1465);
#1216=AXIS2_PLACEMENT_3D('',#1808,#1468,#1469);
#1217=AXIS2_PLACEMENT_3D('',#1809,#1470,#1471);
#1218=AXIS2_PLACEMENT_3D('',#1811,#1473,#1474);
#1219=AXIS2_PLACEMENT_3D('',#1813,#1476,#1477);
#1220=AXIS2_PLACEMENT_3D('',#1815,#1479,#1480);
#1221=AXIS2_PLACEMENT_3D('',#1816,#1481,#1482);
#1222=AXIS2_PLACEMENT_3D('',#1820,#1485,#1486);
#1223=AXIS2_PLACEMENT_3D('',#1831,#1492,#1493);
#1224=AXIS2_PLACEMENT_3D('',#1833,#1494,#1495);
#1225=AXIS2_PLACEMENT_3D('',#1834,#1496,#1497);
#1226=AXIS2_PLACEMENT_3D('',#1836,#1499,#1500);
#1227=AXIS2_PLACEMENT_3D('',#1842,#1504,#1505);
#1228=AXIS2_PLACEMENT_3D('',#1851,#1510,#1511);
#1229=AXIS2_PLACEMENT_3D('',#1854,#1514,#1515);
#1230=AXIS2_PLACEMENT_3D('',#1858,#1518,#1519);
#1231=AXIS2_PLACEMENT_3D('',#1860,#1521,#1522);
#1232=AXIS2_PLACEMENT_3D('',#1864,#1525,#1526);
#1233=AXIS2_PLACEMENT_3D('',#1868,#1529,#1530);
#1234=AXIS2_PLACEMENT_3D('',#1870,#1532,#1533);
#1235=AXIS2_PLACEMENT_3D('',#1873,#1535,#1536);
#1236=AXIS2_PLACEMENT_3D('',#1875,#1537,#1538);
#1237=AXIS2_PLACEMENT_3D('',#1876,#1539,#1540);
#1238=AXIS2_PLACEMENT_3D('',#1879,#1543,#1544);
#1239=AXIS2_PLACEMENT_3D('',#1881,#1546,#1547);
#1240=AXIS2_PLACEMENT_3D('',#1884,#1550,#1551);
#1241=AXIS2_PLACEMENT_3D('',#1885,#1552,#1553);
#1242=AXIS2_PLACEMENT_3D('',#1888,#1556,#1557);
#1243=AXIS2_PLACEMENT_3D('',#1889,#1558,#1559);
#1244=AXIS2_PLACEMENT_3D('',#1891,#1561,#1562);
#1245=AXIS2_PLACEMENT_3D('',#1892,#1563,#1564);
#1246=AXIS2_PLACEMENT_3D('',#1894,#1566,#1567);
#1247=AXIS2_PLACEMENT_3D('',#1896,#1569,#1570);
#1248=AXIS2_PLACEMENT_3D('',#1898,#1572,#1573);
#1249=AXIS2_PLACEMENT_3D('',#1900,#1575,#1576);
#1250=AXIS2_PLACEMENT_3D('',#1901,#1577,#1578);
#1251=AXIS2_PLACEMENT_3D('',#1903,#1580,#1581);
#1252=AXIS2_PLACEMENT_3D('',#1905,#1583,#1584);
#1253=DIRECTION('axis',(0.,0.,1.));
#1254=DIRECTION('refdir',(1.,0.,0.));
#1255=DIRECTION('center_axis',(-1.,0.,0.));
#1256=DIRECTION('ref_axis',(0.,0.0871557427476603,-0.996194698091745));
#1257=DIRECTION('center_axis',(1.,0.,0.));
#1258=DIRECTION('ref_axis',(0.,0.0871557427476603,-0.996194698091745));
#1259=DIRECTION('',(-1.,0.,0.));
#1260=DIRECTION('center_axis',(-1.,0.,0.));
#1261=DIRECTION('ref_axis',(0.,0.0871557427476603,-0.996194698091745));
#1262=DIRECTION('',(1.,0.,0.));
#1263=DIRECTION('center_axis',(0.,-0.766044443118978,0.642787609686539));
#1264=DIRECTION('ref_axis',(1.,0.,0.));
#1265=DIRECTION('',(0.,-0.642787609686539,-0.766044443118978));
#1266=DIRECTION('',(1.,0.,0.));
#1267=DIRECTION('',(0.,0.642787609686539,0.766044443118978));
#1268=DIRECTION('',(-1.,0.,0.));
#1269=DIRECTION('',(0.,-0.642787609686539,-0.766044443118978));
#1270=DIRECTION('',(1.,0.,0.));
#1271=DIRECTION('',(0.,0.642787609686539,0.766044443118978));
#1272=DIRECTION('',(-1.,0.,0.));
#1273=DIRECTION('center_axis',(0.,-0.766044443118978,0.642787609686539));
#1274=DIRECTION('ref_axis',(-0.707106781186548,-0.454519477672044,-0.541675220419702));
#1275=DIRECTION('',(0.,0.642787609686539,0.766044443118978));
#1276=DIRECTION('center_axis',(0.,-0.766044443118978,0.642787609686539));
#1277=DIRECTION('ref_axis',(-0.707106781186548,0.454519477672044,0.541675220419702));
#1278=DIRECTION('',(1.,0.,0.));
#1279=DIRECTION('center_axis',(0.,-0.766044443118978,0.642787609686539));
#1280=DIRECTION('ref_axis',(0.707106781186548,0.454519477672044,0.541675220419702));
#1281=DIRECTION('',(0.,-0.642787609686539,-0.766044443118978));
#1282=DIRECTION('center_axis',(0.,-0.766044443118978,0.642787609686539));
#1283=DIRECTION('ref_axis',(0.707106781186544,-0.454519477672046,-0.541675220419704));
#1284=DIRECTION('center_axis',(1.,0.,0.));
#1285=DIRECTION('ref_axis',(0.,0.996194698091746,0.0871557427476584));
#1286=DIRECTION('center_axis',(1.,0.,0.));
#1287=DIRECTION('ref_axis',(0.,0.996194698091746,0.0871557427476584));
#1288=DIRECTION('',(-1.,0.,0.));
#1289=DIRECTION('center_axis',(-1.,0.,0.));
#1290=DIRECTION('ref_axis',(0.,0.996194698091746,0.0871557427476584));
#1291=DIRECTION('center_axis',(0.,0.642787609686539,0.766044443118978));
#1292=DIRECTION('ref_axis',(1.,0.,0.));
#1293=DIRECTION('',(0.,0.766044443118978,-0.642787609686539));
#1294=DIRECTION('',(1.,0.,0.));
#1295=DIRECTION('',(0.,-0.766044443118978,0.642787609686539));
#1296=DIRECTION('center_axis',(0.,-0.642787609686539,-0.766044443118978));
#1297=DIRECTION('ref_axis',(-0.707106781186549,0.541675220419701,-0.454519477672043));
#1298=DIRECTION('',(0.,0.642787609686539,0.766044443118978));
#1299=DIRECTION('center_axis',(-0.707106781186547,-0.454519477672045,-0.541675220419701));
#1300=DIRECTION('ref_axis',(-0.707106781186548,0.454519477672043,0.541675220419703));
#1301=DIRECTION('',(0.,-0.642787609686539,-0.766044443118978));
#1302=DIRECTION('center_axis',(-0.707106781186544,0.454519477672041,0.541675220419709));
#1303=DIRECTION('ref_axis',(0.707106781186551,0.454519477672046,0.541675220419695));
#1304=DIRECTION('center_axis',(1.,0.,0.));
#1305=DIRECTION('ref_axis',(0.,0.0871557427476593,-0.996194698091745));
#1306=DIRECTION('',(1.,0.,0.));
#1307=DIRECTION('center_axis',(-0.707106781186547,-0.454519477672044,-0.541675220419703));
#1308=DIRECTION('ref_axis',(-0.707106781186548,0.454519477672043,0.541675220419702));
#1309=DIRECTION('',(-1.,0.,0.));
#1310=DIRECTION('center_axis',(0.,0.642787609686539,0.766044443118978));
#1311=DIRECTION('ref_axis',(0.707106781186544,0.541675220419705,-0.454519477672045));
#1312=DIRECTION('',(0.,-0.642787609686539,-0.766044443118978));
#1313=DIRECTION('',(0.,0.642787609686539,0.766044443118978));
#1314=DIRECTION('center_axis',(0.707106781186548,-0.454519477672044,-0.541675220419701));
#1315=DIRECTION('ref_axis',(-0.707106781186547,-0.454519477672043,-0.541675220419703));
#1316=DIRECTION('center_axis',(-1.,0.,0.));
#1317=DIRECTION('ref_axis',(0.,0.996194698091745,0.087155742747663));
#1318=DIRECTION('',(1.,0.,0.));
#1319=DIRECTION('',(-1.,0.,0.));
#1320=DIRECTION('center_axis',(0.,0.642787609686539,0.766044443118978));
#1321=DIRECTION('ref_axis',(-1.,0.,0.));
#1322=DIRECTION('',(0.,-0.766044443118978,0.642787609686539));
#1323=DIRECTION('',(-1.,0.,0.));
#1324=DIRECTION('',(0.,-0.766044443118978,0.642787609686539));
#1325=DIRECTION('center_axis',(-1.,0.,0.));
#1326=DIRECTION('ref_axis',(0.,-0.642787609686539,-0.766044443118978));
#1327=DIRECTION('',(0.,-0.766044443118978,0.642787609686539));
#1328=DIRECTION('',(0.,-0.642787609686539,-0.766044443118978));
#1329=DIRECTION('',(0.,0.766044443118978,-0.642787609686539));
#1330=DIRECTION('',(0.,-0.642787609686539,-0.766044443118978));
#1331=DIRECTION('center_axis',(0.,-0.766044443118978,0.642787609686539));
#1332=DIRECTION('ref_axis',(1.,0.,0.));
#1333=DIRECTION('center_axis',(0.,0.766044443118978,-0.642787609686539));
#1334=DIRECTION('ref_axis',(1.,0.,0.));
#1335=DIRECTION('center_axis',(0.,0.766044443118978,-0.642787609686539));
#1336=DIRECTION('ref_axis',(0.707106781186544,-0.454519477672046,-0.541675220419704));
#1337=DIRECTION('',(0.,-0.642787609686539,-0.766044443118978));
#1338=DIRECTION('center_axis',(0.,0.766044443118978,-0.642787609686539));
#1339=DIRECTION('ref_axis',(0.707106781186548,0.454519477672044,0.541675220419702));
#1340=DIRECTION('',(1.,0.,0.));
#1341=DIRECTION('center_axis',(0.,0.766044443118978,-0.642787609686539));
#1342=DIRECTION('ref_axis',(-0.707106781186548,0.454519477672044,0.541675220419702));
#1343=DIRECTION('',(0.,0.642787609686539,0.766044443118978));
#1344=DIRECTION('center_axis',(0.,0.766044443118978,-0.642787609686539));
#1345=DIRECTION('ref_axis',(-0.707106781186548,-0.454519477672044,-0.541675220419702));
#1346=DIRECTION('',(-1.,0.,0.));
#1347=DIRECTION('center_axis',(0.,0.766044443118978,-0.642787609686539));
#1348=DIRECTION('ref_axis',(1.,0.,0.));
#1349=DIRECTION('center_axis',(0.,0.766044443118978,-0.642787609686539));
#1350=DIRECTION('ref_axis',(1.,0.,0.));
#1351=DIRECTION('center_axis',(0.,0.766044443118978,-0.642787609686539));
#1352=DIRECTION('ref_axis',(1.,0.,0.));
#1353=DIRECTION('',(-1.26882631385732E-15,-0.642787609686539,-0.766044443118978));
#1354=DIRECTION('center_axis',(0.,-0.766044443118978,0.642787609686539));
#1355=DIRECTION('ref_axis',(-5.94698003514803E-17,-0.642787609686539,-0.766044443118978));
#1356=DIRECTION('',(1.,0.,0.));
#1357=DIRECTION('center_axis',(0.,-0.766044443118978,0.642787609686539));
#1358=DIRECTION('ref_axis',(0.,-0.642787609686539,-0.766044443118978));
#1359=DIRECTION('',(0.,0.642787609686539,0.766044443118978));
#1360=DIRECTION('center_axis',(0.,-0.766044443118978,0.642787609686539));
#1361=DIRECTION('ref_axis',(0.,0.642787609686539,0.766044443118978));
#1362=DIRECTION('',(-1.,0.,0.));
#1363=DIRECTION('center_axis',(0.,-0.766044443118978,0.642787609686539));
#1364=DIRECTION('ref_axis',(0.,0.642787609686539,0.766044443118978));
#1365=DIRECTION('center_axis',(-0.816496580927726,0.408248290463863,0.408248290463862));
#1366=DIRECTION('ref_axis',(0.577350269189623,0.577350269189627,0.577350269189628));
#1367=DIRECTION('center_axis',(0.,1.,0.));
#1368=DIRECTION('ref_axis',(1.,0.,0.));
#1369=DIRECTION('center_axis',(0.,0.,1.));
#1370=DIRECTION('ref_axis',(0.,1.,0.));
#1371=DIRECTION('center_axis',(1.,0.,0.));
#1372=DIRECTION('ref_axis',(0.,0.,1.));
#1373=DIRECTION('center_axis',(0.,0.,1.));
#1374=DIRECTION('ref_axis',(0.707106781186546,0.707106781186549,0.));
#1375=DIRECTION('center_axis',(0.,0.,1.));
#1376=DIRECTION('ref_axis',(0.707106781186546,0.707106781186549,0.));
#1377=DIRECTION('',(0.,0.,1.));
#1378=DIRECTION('',(0.,0.,-1.));
#1379=DIRECTION('center_axis',(-0.816496580927726,-0.408248290463863,-0.408248290463863));
#1380=DIRECTION('ref_axis',(-0.577350269189626,0.577350269189626,0.577350269189626));
#1381=DIRECTION('center_axis',(-1.,0.,0.));
#1382=DIRECTION('ref_axis',(0.,1.,0.));
#1383=DIRECTION('center_axis',(0.,0.,1.));
#1384=DIRECTION('ref_axis',(-1.,0.,0.));
#1385=DIRECTION('center_axis',(0.,1.,0.));
#1386=DIRECTION('ref_axis',(0.,0.,1.));
#1387=DIRECTION('center_axis',(0.,0.,1.));
#1388=DIRECTION('ref_axis',(-0.707106781186548,0.707106781186548,0.));
#1389=DIRECTION('center_axis',(0.,0.,1.));
#1390=DIRECTION('ref_axis',(-0.707106781186548,0.707106781186548,0.));
#1391=DIRECTION('',(0.,0.,1.));
#1392=DIRECTION('',(0.,0.,-1.));
#1393=DIRECTION('center_axis',(-0.408248290463861,-0.816496580927726,-0.408248290463864));
#1394=DIRECTION('ref_axis',(0.577350269189625,-0.577350269189626,0.577350269189626));
#1395=DIRECTION('center_axis',(1.,0.,0.));
#1396=DIRECTION('ref_axis',(0.,-1.,0.));
#1397=DIRECTION('center_axis',(0.,0.,1.));
#1398=DIRECTION('ref_axis',(1.,0.,0.));
#1399=DIRECTION('center_axis',(0.,-1.,0.));
#1400=DIRECTION('ref_axis',(0.,0.,1.));
#1401=DIRECTION('center_axis',(0.,0.,1.));
#1402=DIRECTION('ref_axis',(0.707106781186546,-0.707106781186549,0.));
#1403=DIRECTION('center_axis',(0.,0.,1.));
#1404=DIRECTION('ref_axis',(0.707106781186546,-0.707106781186549,0.));
#1405=DIRECTION('',(0.,0.,1.));
#1406=DIRECTION('',(0.,0.,-1.));
#1407=DIRECTION('center_axis',(0.,1.,0.));
#1408=DIRECTION('ref_axis',(0.707106781186546,0.,0.707106781186549));
#1409=DIRECTION('',(0.,-1.,0.));
#1410=DIRECTION('',(0.,1.,0.));
#1411=DIRECTION('center_axis',(-0.408248290463863,-0.408248290463862,-0.816496580927726));
#1412=DIRECTION('ref_axis',(-0.577350269189627,-0.577350269189625,0.577350269189625));
#1413=DIRECTION('center_axis',(0.,-1.,0.));
#1414=DIRECTION('ref_axis',(-1.,0.,0.));
#1415=DIRECTION('center_axis',(0.,0.,1.));
#1416=DIRECTION('ref_axis',(0.,-1.,0.));
#1417=DIRECTION('center_axis',(-1.,-2.22044604925031E-15,0.));
#1418=DIRECTION('ref_axis',(0.,0.,1.));
#1419=DIRECTION('center_axis',(0.,0.,1.));
#1420=DIRECTION('ref_axis',(-0.707106781186548,-0.707106781186547,0.));
#1421=DIRECTION('center_axis',(0.,0.,1.));
#1422=DIRECTION('ref_axis',(-0.707106781186548,-0.707106781186547,0.));
#1423=DIRECTION('',(0.,0.,1.));
#1424=DIRECTION('',(0.,0.,-1.));
#1425=DIRECTION('center_axis',(1.,0.,0.));
#1426=DIRECTION('ref_axis',(0.,-0.707106781186547,0.707106781186548));
#1427=DIRECTION('',(-1.,0.,0.));
#1428=DIRECTION('',(1.,0.,0.));
#1429=DIRECTION('center_axis',(0.,-1.,0.));
#1430=DIRECTION('ref_axis',(-0.707106781186547,0.,0.707106781186548));
#1431=DIRECTION('',(0.,1.,0.));
#1432=DIRECTION('',(0.,-1.,0.));
#1433=DIRECTION('center_axis',(-1.,0.,0.));
#1434=DIRECTION('ref_axis',(0.,0.707106781186548,0.707106781186547));
#1435=DIRECTION('',(1.,0.,0.));
#1436=DIRECTION('',(-1.,0.,0.));
#1437=DIRECTION('center_axis',(1.,0.,0.));
#1438=DIRECTION('ref_axis',(0.,1.,0.));
#1439=DIRECTION('',(0.,-1.,0.));
#1440=DIRECTION('center_axis',(0.,-1.,0.));
#1441=DIRECTION('ref_axis',(1.,0.,0.));
#1442=DIRECTION('',(-1.,0.,0.));
#1443=DIRECTION('center_axis',(0.,0.,1.));
#1444=DIRECTION('ref_axis',(1.,0.,0.));
#1445=DIRECTION('',(1.9739433286153E-15,1.,0.));
#1446=DIRECTION('center_axis',(0.,0.,-1.));
#1447=DIRECTION('ref_axis',(-0.707106781186548,0.707106781186548,8.00346483090564E-17));
#1448=DIRECTION('',(1.,0.,0.));
#1449=DIRECTION('center_axis',(0.,0.,-1.));
#1450=DIRECTION('ref_axis',(0.707106781186548,0.707106781186548,8.00346483090563E-17));
#1451=DIRECTION('',(0.,-1.,0.));
#1452=DIRECTION('center_axis',(0.,0.,-1.));
#1453=DIRECTION('ref_axis',(0.707106781186548,-0.707106781186548,-2.93526433134882E-17));
#1454=DIRECTION('',(-1.,0.,0.));
#1455=DIRECTION('center_axis',(0.,0.,-1.));
#1456=DIRECTION('ref_axis',(-0.707106781186547,-0.707106781186548,-2.93526433134882E-17));
#1457=DIRECTION('center_axis',(1.41482741084696E-31,-4.1510906265435E-17,
1.));
#1458=DIRECTION('ref_axis',(-0.707106781186547,-0.707106781186548,-2.93526433134882E-17));
#1459=DIRECTION('',(1.41482741084696E-31,-4.1510906265435E-17,1.));
#1460=DIRECTION('',(-1.41482741084696E-31,4.1510906265435E-17,-1.));
#1461=DIRECTION('center_axis',(0.,-1.,-4.1510906265435E-17));
#1462=DIRECTION('ref_axis',(0.,4.1510906265435E-17,-1.));
#1463=DIRECTION('',(0.,4.1510906265435E-17,-1.));
#1464=DIRECTION('center_axis',(-1.31371731030452E-46,-1.13186085098428E-16,
1.));
#1465=DIRECTION('ref_axis',(-0.707106781186548,0.707106781186548,8.00346483090564E-17));
#1466=DIRECTION('',(-1.31371731030452E-46,-1.13186085098428E-16,1.));
#1467=DIRECTION('',(1.31371731030452E-46,1.13186085098428E-16,-1.));
#1468=DIRECTION('center_axis',(-1.,1.9739433286153E-15,2.23422917572127E-31));
#1469=DIRECTION('ref_axis',(2.23422917572127E-31,0.,1.));
#1470=DIRECTION('center_axis',(0.,-4.1510906265435E-17,1.));
#1471=DIRECTION('ref_axis',(0.707106781186548,-0.707106781186548,-2.93526433134882E-17));
#1472=DIRECTION('',(0.,-4.1510906265435E-17,1.));
#1473=DIRECTION('center_axis',(1.,0.,0.));
#1474=DIRECTION('ref_axis',(0.,0.,-1.));
#1475=DIRECTION('',(0.,1.13186085098428E-16,-1.));
#1476=DIRECTION('center_axis',(0.,-1.13186085098428E-16,1.));
#1477=DIRECTION('ref_axis',(0.707106781186548,0.707106781186548,8.00346483090563E-17));
#1478=DIRECTION('',(0.,-1.13186085098428E-16,1.));
#1479=DIRECTION('center_axis',(0.,1.,1.13186085098428E-16));
#1480=DIRECTION('ref_axis',(0.,-1.13186085098428E-16,1.));
#1481=DIRECTION('center_axis',(0.,-0.642787609686539,-0.766044443118978));
#1482=DIRECTION('ref_axis',(-1.,0.,0.));
#1483=DIRECTION('',(-1.,0.,0.));
#1484=DIRECTION('',(0.,-0.766044443118978,0.642787609686539));
#1485=DIRECTION('center_axis',(0.,-0.766044443118978,0.642787609686539));
#1486=DIRECTION('ref_axis',(-1.,0.,0.));
#1487=DIRECTION('',(0.,0.642787609686539,0.766044443118978));
#1488=DIRECTION('',(1.,0.,0.));
#1489=DIRECTION('',(0.,-0.642787609686539,-0.766044443118978));
#1490=DIRECTION('',(1.,0.,0.));
#1491=DIRECTION('',(0.,0.642787609686539,0.766044443118978));
#1492=DIRECTION('center_axis',(0.,0.766044443118978,-0.642787609686539));
#1493=DIRECTION('ref_axis',(-1.,0.,0.));
#1494=DIRECTION('center_axis',(0.,0.766044443118978,-0.642787609686539));
#1495=DIRECTION('ref_axis',(-1.,0.,0.));
#1496=DIRECTION('center_axis',(1.,0.,0.));
#1497=DIRECTION('ref_axis',(0.,0.642787609686539,0.766044443118978));
#1498=DIRECTION('',(0.,-0.766044443118978,0.642787609686539));
#1499=DIRECTION('center_axis',(0.,0.642787609686539,0.766044443118978));
#1500=DIRECTION('ref_axis',(1.,0.,0.));
#1501=DIRECTION('',(0.,-0.766044443118978,0.642787609686539));
#1502=DIRECTION('',(1.,0.,0.));
#1503=DIRECTION('',(0.,0.766044443118978,-0.642787609686539));
#1504=DIRECTION('center_axis',(0.,-0.642787609686539,-0.766044443118978));
#1505=DIRECTION('ref_axis',(-1.,0.,0.));
#1506=DIRECTION('',(-1.,0.,0.));
#1507=DIRECTION('',(0.,-0.766044443118978,0.642787609686539));
#1508=DIRECTION('',(-1.,0.,0.));
#1509=DIRECTION('',(0.,0.766044443118978,-0.642787609686539));
#1510=DIRECTION('center_axis',(0.,0.766044443118978,-0.642787609686539));
#1511=DIRECTION('ref_axis',(-1.,0.,0.));
#1512=DIRECTION('',(0.,0.642787609686539,0.766044443118978));
#1513=DIRECTION('',(0.,-0.642787609686539,-0.766044443118978));
#1514=DIRECTION('center_axis',(1.,0.,0.));
#1515=DIRECTION('ref_axis',(0.,0.642787609686539,0.766044443118978));
#1516=DIRECTION('',(0.,0.642787609686539,0.766044443118978));
#1517=DIRECTION('',(0.,-0.766044443118978,0.642787609686539));
#1518=DIRECTION('center_axis',(0.,-0.642787609686539,-0.766044443118978));
#1519=DIRECTION('ref_axis',(1.,0.,0.));
#1520=DIRECTION('',(0.,-0.766044443118978,0.642787609686539));
#1521=DIRECTION('center_axis',(1.,0.,0.));
#1522=DIRECTION('ref_axis',(0.,0.642787609686539,0.766044443118978));
#1523=DIRECTION('',(0.,0.642787609686539,0.766044443118978));
#1524=DIRECTION('',(0.,-0.766044443118978,0.642787609686539));
#1525=DIRECTION('center_axis',(0.,0.642787609686539,0.766044443118978));
#1526=DIRECTION('ref_axis',(-1.,0.,0.));
#1527=DIRECTION('',(0.,-0.766044443118978,0.642787609686539));
#1528=DIRECTION('',(-1.,0.,0.));
#1529=DIRECTION('center_axis',(-1.,0.,0.));
#1530=DIRECTION('ref_axis',(0.,-0.642787609686539,-0.766044443118978));
#1531=DIRECTION('',(0.,-0.642787609686539,-0.766044443118978));
#1532=DIRECTION('center_axis',(0.,-0.766044443118978,0.642787609686539));
#1533=DIRECTION('ref_axis',(-1.,0.,0.));
#1534=DIRECTION('',(1.,0.,0.));
#1535=DIRECTION('center_axis',(0.,0.766044443118978,-0.642787609686539));
#1536=DIRECTION('ref_axis',(-1.,0.,0.));
#1537=DIRECTION('center_axis',(0.,0.766044443118978,-0.642787609686539));
#1538=DIRECTION('ref_axis',(-1.,0.,0.));
#1539=DIRECTION('center_axis',(0.,-0.766044443118978,0.642787609686539));
#1540=DIRECTION('ref_axis',(0.707106781186548,0.454519477672044,0.541675220419702));
#1541=DIRECTION('',(0.,-0.766044443118978,0.642787609686539));
#1542=DIRECTION('',(0.,0.766044443118978,-0.642787609686539));
#1543=DIRECTION('center_axis',(-1.,0.,0.));
#1544=DIRECTION('ref_axis',(0.,-0.642787609686539,-0.766044443118978));
#1545=DIRECTION('',(0.,0.766044443118978,-0.642787609686539));
#1546=DIRECTION('center_axis',(0.,-0.766044443118978,0.642787609686539));
#1547=DIRECTION('ref_axis',(-0.707106781186548,0.454519477672044,0.541675220419702));
#1548=DIRECTION('',(0.,-0.766044443118978,0.642787609686539));
#1549=DIRECTION('',(0.,0.766044443118978,-0.642787609686539));
#1550=DIRECTION('center_axis',(0.,-0.642787609686539,-0.766044443118978));
#1551=DIRECTION('ref_axis',(1.,0.,0.));
#1552=DIRECTION('center_axis',(0.,-0.766044443118978,0.642787609686539));
#1553=DIRECTION('ref_axis',(-0.707106781186548,-0.454519477672044,-0.541675220419702));
#1554=DIRECTION('',(0.,-0.766044443118978,0.642787609686539));
#1555=DIRECTION('',(0.,0.766044443118978,-0.642787609686539));
#1556=DIRECTION('center_axis',(1.,0.,0.));
#1557=DIRECTION('ref_axis',(0.,0.642787609686539,0.766044443118978));
#1558=DIRECTION('center_axis',(0.,-0.766044443118978,0.642787609686539));
#1559=DIRECTION('ref_axis',(0.707106781186544,-0.454519477672046,-0.541675220419704));
#1560=DIRECTION('',(0.,-0.766044443118978,0.642787609686539));
#1561=DIRECTION('center_axis',(0.,0.642787609686539,0.766044443118978));
#1562=DIRECTION('ref_axis',(-1.,0.,0.));
#1563=DIRECTION('center_axis',(0.,-0.766044443118978,0.642787609686539));
#1564=DIRECTION('ref_axis',(1.,0.,0.));
#1565=DIRECTION('',(0.,0.766044443118978,-0.642787609686539));
#1566=DIRECTION('center_axis',(0.,-0.766044443118978,0.642787609686539));
#1567=DIRECTION('ref_axis',(1.,0.,0.));
#1568=DIRECTION('',(0.,0.766044443118978,-0.642787609686539));
#1569=DIRECTION('center_axis',(0.,-0.766044443118978,0.642787609686539));
#1570=DIRECTION('ref_axis',(1.,0.,0.));
#1571=DIRECTION('',(0.,0.766044443118978,-0.642787609686539));
#1572=DIRECTION('center_axis',(0.,-0.766044443118978,0.642787609686539));
#1573=DIRECTION('ref_axis',(1.,0.,0.));
#1574=DIRECTION('',(0.,0.766044443118978,-0.642787609686539));
#1575=DIRECTION('center_axis',(0.,-0.642787609686539,-0.766044443118978));
#1576=DIRECTION('ref_axis',(1.,0.,0.));
#1577=DIRECTION('center_axis',(-1.,0.,0.));
#1578=DIRECTION('ref_axis',(0.,-1.,0.));
#1579=DIRECTION('',(0.,1.,0.));
#1580=DIRECTION('center_axis',(0.,1.,0.));
#1581=DIRECTION('ref_axis',(-1.,0.,0.));
#1582=DIRECTION('',(1.,0.,0.));
#1583=DIRECTION('center_axis',(0.,0.,1.));
#1584=DIRECTION('ref_axis',(1.,0.,0.));
#1585=CARTESIAN_POINT('',(0.,0.,0.));
#1586=CARTESIAN_POINT('Origin',(29.3325,6.18546888102236,57.4613186605122));
#1587=CARTESIAN_POINT('',(6.,4.89989366164928,55.9292297742743));
#1588=CARTESIAN_POINT('',(6.,7.71755776726032,56.1757434411392));
#1589=CARTESIAN_POINT('Origin',(6.,6.18546888102236,57.4613186605122));
#1590=CARTESIAN_POINT('',(0.,7.71755776726031,56.1757434411392));
#1591=CARTESIAN_POINT('',(29.3325,7.71755776726032,56.1757434411392));
#1592=CARTESIAN_POINT('',(0.,4.89989366164928,55.9292297742743));
#1593=CARTESIAN_POINT('Origin',(0.,6.18546888102236,57.4613186605122));
#1594=CARTESIAN_POINT('',(29.3325,4.89989366164928,55.9292297742743));
#1595=CARTESIAN_POINT('Origin',(52.665,17.593989390094,67.9460163096623));
#1596=CARTESIAN_POINT('',(6.,1.40538344013851,48.6531870097108));
#1597=CARTESIAN_POINT('',(6.00000000000001,9.49968641511625,58.2996016596865));
#1598=CARTESIAN_POINT('',(99.33,1.4053834401385,48.6531870097108));
#1599=CARTESIAN_POINT('',(75.9975,1.40538344013851,48.6531870097108));
#1600=CARTESIAN_POINT('',(99.33,33.7825953400495,87.2388456096137));
#1601=CARTESIAN_POINT('',(99.33,25.6882923650717,77.592430959638));
#1602=CARTESIAN_POINT('',(6.,33.7825953400495,87.2388456096137));
#1603=CARTESIAN_POINT('',(29.3325,33.7825953400495,87.2388456096137));
#1604=CARTESIAN_POINT('',(6.,17.7771838588547,68.1643389759512));
#1605=CARTESIAN_POINT('',(6.00000000000001,9.49968641511625,58.2996016596865));
#1606=CARTESIAN_POINT('',(0.,17.7771838588547,68.1643389759512));
#1607=CARTESIAN_POINT('',(26.3325,17.7771838588547,68.1643389759512));
#1608=CARTESIAN_POINT('',(0.,25.1933459056131,77.0025767384364));
#1609=CARTESIAN_POINT('',(36.,13.5347856349235,63.1084456513659));
#1610=CARTESIAN_POINT('',(32.,13.5347856349235,63.1084456513659));
#1611=CARTESIAN_POINT('',(37.,13.5347856349235,63.1084456513659));
#1612=CARTESIAN_POINT('',(31.,14.17757324461,63.8744900944849));
#1613=CARTESIAN_POINT('Origin',(32.,14.17757324461,63.8744900944849));
#1614=CARTESIAN_POINT('',(31.,15.4631484639831,65.4065789807229));
#1615=CARTESIAN_POINT('',(31.,13.5347856349235,63.1084456513659));
#1616=CARTESIAN_POINT('',(32.,16.1059360736697,66.1726234238418));
#1617=CARTESIAN_POINT('Origin',(32.,15.4631484639831,65.4065789807229));
#1618=CARTESIAN_POINT('',(36.,16.1059360736697,66.1726234238418));
#1619=CARTESIAN_POINT('',(31.,16.1059360736697,66.1726234238418));
#1620=CARTESIAN_POINT('',(37.,15.4631484639831,65.4065789807229));
#1621=CARTESIAN_POINT('Origin',(36.,15.4631484639831,65.4065789807229));
#1622=CARTESIAN_POINT('',(37.,14.17757324461,63.8744900944849));
#1623=CARTESIAN_POINT('',(37.,16.1059360736697,66.1726234238418));
#1624=CARTESIAN_POINT('Origin',(36.,14.17757324461,63.8744900944849));
#1625=CARTESIAN_POINT('Origin',(26.3325,16.2450949726167,69.4499141953243));
#1626=CARTESIAN_POINT('',(6.,17.5306701919898,70.9820030815622));
#1627=CARTESIAN_POINT('Origin',(6.,16.2450949726167,69.4499141953243));
#1628=CARTESIAN_POINT('',(0.,17.5306701919898,70.9820030815622));
#1629=CARTESIAN_POINT('',(26.3325,17.5306701919898,70.9820030815622));
#1630=CARTESIAN_POINT('Origin',(0.,16.2450949726167,69.4499141953243));
#1631=CARTESIAN_POINT('Origin',(0.,15.2325368626328,72.9103659106218));
#1632=CARTESIAN_POINT('',(6.00000008940697,15.2325368626328,72.9103659106218));
#1633=CARTESIAN_POINT('',(6.,17.1476479704303,71.3033968864055));
#1634=CARTESIAN_POINT('',(0.,15.2325368626328,72.9103659106218));
#1635=CARTESIAN_POINT('',(26.3325,15.2325368626329,72.9103659106218));
#1636=CARTESIAN_POINT('',(0.,18.3733190794207,70.274936710907));
#1637=CARTESIAN_POINT('Origin',(1.5,28.9189307474336,78.7978253525278));
#1638=CARTESIAN_POINT('',(0.,-1.14906666467847,42.9641814145298));
#1639=CARTESIAN_POINT('',(0.,38.941596551471,90.7423733318605));
#1640=CARTESIAN_POINT('',(0.,28.9189307474336,78.7978253525278));
#1641=CARTESIAN_POINT('',(1.5,39.1264818016196,88.6291252526522));
#1642=CARTESIAN_POINT('Origin',(1.5,37.9774151369412,89.593306667182));
#1643=CARTESIAN_POINT('',(1.5,0.964181414529812,43.1490666646785));
#1644=CARTESIAN_POINT('',(1.5,30.0679974121121,77.833643937998));
#1645=CARTESIAN_POINT('Origin',(1.5,-0.184885250148663,44.1132480792083));
#1646=CARTESIAN_POINT('Origin',(26.3325,-0.184885250148656,44.1132480792083));
#1647=CARTESIAN_POINT('',(103.83,0.96418141452981,43.1490666646785));
#1648=CARTESIAN_POINT('',(26.3325,0.964181414529812,43.1490666646785));
#1649=CARTESIAN_POINT('',(105.33,-1.14906666467847,42.9641814145298));
#1650=CARTESIAN_POINT('Origin',(103.83,-0.184885250148656,44.1132480792083));
#1651=CARTESIAN_POINT('',(26.3325,-1.14906666467847,42.9641814145298));
#1652=CARTESIAN_POINT('Origin',(103.83,8.8735991393589,54.9087293938625));
#1653=CARTESIAN_POINT('',(105.33,38.941596551471,90.7423733318605));
#1654=CARTESIAN_POINT('',(105.33,8.8735991393589,54.9087293938625));
#1655=CARTESIAN_POINT('',(103.83,39.1264818016196,88.6291252526522));
#1656=CARTESIAN_POINT('',(103.83,10.0226658040374,53.9445479793327));
#1657=CARTESIAN_POINT('Origin',(103.83,37.9774151369412,89.593306667182));
#1658=CARTESIAN_POINT('Origin',(78.9975,37.9774151369412,89.593306667182));
#1659=CARTESIAN_POINT('',(78.9975,38.941596551471,90.7423733318605));
#1660=CARTESIAN_POINT('',(78.9975,39.1264818016196,88.6291252526522));
#1661=CARTESIAN_POINT('Origin',(105.33,40.0906632161495,89.7781919173307));
#1662=CARTESIAN_POINT('',(0.,33.8090987825738,95.0490503167603));
#1663=CARTESIAN_POINT('',(0.,40.0906632161495,89.7781919173307));
#1664=CARTESIAN_POINT('',(105.33,33.8090987825738,95.0490503167603));
#1665=CARTESIAN_POINT('',(105.33,33.8090987825738,95.0490503167603));
#1666=CARTESIAN_POINT('',(105.33,40.0906632161495,89.7781919173307));
#1667=CARTESIAN_POINT('Origin',(0.,40.0906632161495,89.7781919173307));
#1668=CARTESIAN_POINT('',(0.,-6.28156443357562,47.2708583994296));
#1669=CARTESIAN_POINT('',(0.,0.,42.));
#1670=CARTESIAN_POINT('',(0.,2.60176033229235,57.8575926033339));
#1671=CARTESIAN_POINT('',(0.,33.8090987825738,95.0490503167603));
#1672=CARTESIAN_POINT('',(0.,5.74254254908016,55.2221634036191));
#1673=CARTESIAN_POINT('',(0.,33.8090987825738,95.0490503167603));
#1674=CARTESIAN_POINT('Origin',(52.665,20.0453316080747,65.8890959586653));
#1675=CARTESIAN_POINT('',(2.4,2.57115043874616,45.0641777724759));
#1676=CARTESIAN_POINT('Origin',(4.,2.57115043874616,45.0641777724759));
#1677=CARTESIAN_POINT('',(37.,16.6289154625908,61.817569743488));
#1678=CARTESIAN_POINT('',(36.,15.9861278529042,61.051525300369));
#1679=CARTESIAN_POINT('Origin',(36.,16.6289154625908,61.817569743488));
#1680=CARTESIAN_POINT('',(37.,17.9144906819638,63.3496586297259));
#1681=CARTESIAN_POINT('',(37.,18.5572782916504,64.1157030728449));
#1682=CARTESIAN_POINT('',(36.,18.5572782916504,64.1157030728449));
#1683=CARTESIAN_POINT('Origin',(36.,17.9144906819638,63.3496586297259));
#1684=CARTESIAN_POINT('',(32.,18.5572782916504,64.1157030728449));
#1685=CARTESIAN_POINT('',(31.,18.5572782916504,64.1157030728449));
#1686=CARTESIAN_POINT('',(31.,17.9144906819638,63.3496586297259));
#1687=CARTESIAN_POINT('Origin',(32.,17.9144906819638,63.3496586297259));
#1688=CARTESIAN_POINT('',(31.,16.6289154625908,61.817569743488));
#1689=CARTESIAN_POINT('',(31.,15.9861278529042,61.051525300369));
#1690=CARTESIAN_POINT('',(32.,15.9861278529042,61.051525300369));
#1691=CARTESIAN_POINT('Origin',(32.,16.6289154625908,61.817569743488));
#1692=CARTESIAN_POINT('',(37.,15.9861278529042,61.051525300369));
#1693=CARTESIAN_POINT('',(99.73,37.5195127774033,86.7140141448548));
#1694=CARTESIAN_POINT('Origin',(101.33,37.5195127774033,86.7140141448548));
#1695=CARTESIAN_POINT('',(2.4,37.5195127774033,86.7140141448548));
#1696=CARTESIAN_POINT('Origin',(4.,37.5195127774033,86.7140141448548));
#1697=CARTESIAN_POINT('',(99.73,2.57115043874616,45.0641777724759));
#1698=CARTESIAN_POINT('Origin',(101.33,2.57115043874616,45.0641777724759));
#1699=CARTESIAN_POINT('',(25.,12.6413274131039,57.0653473597262));
#1700=CARTESIAN_POINT('',(25.,11.1418141452981,55.278297035676));
#1701=CARTESIAN_POINT('',(25.,2.60361231691593,45.1028643324071));
#1702=CARTESIAN_POINT('',(26.5,9.64181414529808,53.4906666467847));
#1703=CARTESIAN_POINT('Origin',(26.5,11.1418141452981,55.278297035676));
#1704=CARTESIAN_POINT('',(78.83,9.64181414529808,53.4906666467847));
#1705=CARTESIAN_POINT('',(38.8325,9.64181414529808,53.4906666467847));
#1706=CARTESIAN_POINT('',(80.33,11.1418141452981,55.278297035676));
#1707=CARTESIAN_POINT('Origin',(78.83,11.1418141452981,55.278297035676));
#1708=CARTESIAN_POINT('',(80.33,12.6413274131039,57.0653473597262));
#1709=CARTESIAN_POINT('',(80.33,1.67406706980014,43.995075444678));
#1710=CARTESIAN_POINT('',(78.83,14.1413274131039,58.8529777486175));
#1711=CARTESIAN_POINT('Origin',(78.83,12.6413274131039,57.0653473597262));
#1712=CARTESIAN_POINT('',(26.5,14.1413274131039,58.8529777486175));
#1713=CARTESIAN_POINT('',(66.4975,14.1413274131039,58.8529777486175));
#1714=CARTESIAN_POINT('Origin',(26.5,12.6413274131039,57.0653473597262));
#1715=CARTESIAN_POINT('Origin',(93.33,38.0908141452981,3.));
#1716=CARTESIAN_POINT('',(95.33,38.0908141452981,3.));
#1717=CARTESIAN_POINT('',(93.33,38.0908141452981,5.));
#1718=CARTESIAN_POINT('Origin',(93.33,38.0908141452981,3.));
#1719=CARTESIAN_POINT('',(93.33,40.0908141452981,3.));
#1720=CARTESIAN_POINT('Origin',(93.33,38.0908141452981,3.));
#1721=CARTESIAN_POINT('Origin',(93.33,38.0908141452981,3.));
#1722=CARTESIAN_POINT('Origin',(93.33,38.0908141452981,0.));
#1723=CARTESIAN_POINT('',(95.33,38.0908141452981,0.));
#1724=CARTESIAN_POINT('',(93.33,40.0908141452981,0.));
#1725=CARTESIAN_POINT('Origin',(93.33,38.0908141452981,0.));
#1726=CARTESIAN_POINT('',(93.33,40.0908141452981,0.));
#1727=CARTESIAN_POINT('',(95.33,38.0908141452981,0.));
#1728=CARTESIAN_POINT('Origin',(12.,38.0908141452981,3.));
#1729=CARTESIAN_POINT('',(12.,40.0908141452981,3.));
#1730=CARTESIAN_POINT('',(12.,38.0908141452981,5.));
#1731=CARTESIAN_POINT('Origin',(12.,38.0908141452981,3.));
#1732=CARTESIAN_POINT('',(10.,38.0908141452981,3.));
#1733=CARTESIAN_POINT('Origin',(12.,38.0908141452981,3.));
#1734=CARTESIAN_POINT('Origin',(12.,38.0908141452981,3.));
#1735=CARTESIAN_POINT('Origin',(12.,38.0908141452981,0.));
#1736=CARTESIAN_POINT('',(12.,40.0908141452981,0.));
#1737=CARTESIAN_POINT('',(10.,38.0908141452981,0.));
#1738=CARTESIAN_POINT('Origin',(12.,38.0908141452981,0.));
#1739=CARTESIAN_POINT('',(10.,38.0908141452981,0.));
#1740=CARTESIAN_POINT('',(12.,40.0908141452981,0.));
#1741=CARTESIAN_POINT('Origin',(93.33,-8.60818585470192,3.));
#1742=CARTESIAN_POINT('',(93.33,-10.6081858547019,3.));
#1743=CARTESIAN_POINT('',(93.33,-8.60818585470192,5.));
#1744=CARTESIAN_POINT('Origin',(93.33,-8.60818585470192,3.));
#1745=CARTESIAN_POINT('',(95.33,-8.60818585470192,3.));
#1746=CARTESIAN_POINT('Origin',(93.33,-8.60818585470192,3.));
#1747=CARTESIAN_POINT('Origin',(93.33,-8.60818585470192,3.));
#1748=CARTESIAN_POINT('Origin',(93.33,-8.60818585470192,0.));
#1749=CARTESIAN_POINT('',(93.33,-10.6081858547019,0.));
#1750=CARTESIAN_POINT('',(95.33,-8.60818585470192,0.));
#1751=CARTESIAN_POINT('Origin',(93.33,-8.60818585470192,0.));
#1752=CARTESIAN_POINT('',(95.33,-8.60818585470192,0.));
#1753=CARTESIAN_POINT('',(93.33,-10.6081858547019,0.));
#1754=CARTESIAN_POINT('Origin',(93.33,2.06656414529808,3.));
#1755=CARTESIAN_POINT('',(93.33,2.06656414529808,5.));
#1756=CARTESIAN_POINT('',(95.33,2.06656414529808,3.));
#1757=CARTESIAN_POINT('Origin',(12.,-8.60818585470192,3.));
#1758=CARTESIAN_POINT('',(10.,-8.60818585470192,3.));
#1759=CARTESIAN_POINT('',(12.,-8.60818585470192,5.));
#1760=CARTESIAN_POINT('Origin',(12.,-8.60818585470192,3.));
#1761=CARTESIAN_POINT('',(12.,-10.6081858547019,3.));
#1762=CARTESIAN_POINT('Origin',(12.,-8.60818585470192,3.));
#1763=CARTESIAN_POINT('Origin',(12.,-8.60818585470192,3.));
#1764=CARTESIAN_POINT('Origin',(12.,-8.60818585470192,0.));
#1765=CARTESIAN_POINT('',(10.,-8.60818585470192,0.));
#1766=CARTESIAN_POINT('',(12.,-10.6081858547019,0.));
#1767=CARTESIAN_POINT('Origin',(12.,-8.60818585470192,0.));
#1768=CARTESIAN_POINT('',(12.,-10.6081858547019,0.));
#1769=CARTESIAN_POINT('',(10.,-8.60818585470192,0.));
#1770=CARTESIAN_POINT('Origin',(31.3325,-8.60818585470192,3.));
#1771=CARTESIAN_POINT('',(31.3325,-8.60818585470192,5.));
#1772=CARTESIAN_POINT('',(31.3325,-10.6081858547019,3.));
#1773=CARTESIAN_POINT('Origin',(12.,27.4160641452981,3.));
#1774=CARTESIAN_POINT('',(12.,27.4160641452981,5.));
#1775=CARTESIAN_POINT('',(10.,27.4160641452981,3.));
#1776=CARTESIAN_POINT('Origin',(73.9975,38.0908141452981,3.));
#1777=CARTESIAN_POINT('',(73.9975,38.0908141452981,5.));
#1778=CARTESIAN_POINT('',(73.9975,40.0908141452981,3.));
#1779=CARTESIAN_POINT('Origin',(95.33,-10.6081858547019,0.));
#1780=CARTESIAN_POINT('',(95.33,40.0908141452981,0.));
#1781=CARTESIAN_POINT('Origin',(10.,-10.6081858547019,0.));
#1782=CARTESIAN_POINT('',(95.33,-10.6081858547019,0.));
#1783=CARTESIAN_POINT('Origin',(52.665,14.7413141452981,5.));
#1784=CARTESIAN_POINT('',(25.,11.1418141452981,5.));
#1785=CARTESIAN_POINT('',(25.,12.6413274131039,5.));
#1786=CARTESIAN_POINT('',(25.,14.1413274131039,5.));
#1787=CARTESIAN_POINT('',(26.5,14.1413274131039,5.));
#1788=CARTESIAN_POINT('Origin',(26.5,12.6413274131039,5.));
#1789=CARTESIAN_POINT('',(78.83,14.1413274131039,5.));
#1790=CARTESIAN_POINT('',(80.33,14.1413274131039,5.));
#1791=CARTESIAN_POINT('',(80.33,12.6413274131039,5.));
#1792=CARTESIAN_POINT('Origin',(78.83,12.6413274131039,5.));
#1793=CARTESIAN_POINT('',(80.33,11.1418141452981,5.));
#1794=CARTESIAN_POINT('',(80.33,9.64181414529808,5.));
#1795=CARTESIAN_POINT('',(78.83,9.64181414529808,5.));
#1796=CARTESIAN_POINT('Origin',(78.83,11.1418141452981,5.));
#1797=CARTESIAN_POINT('',(26.5,9.64181414529808,5.));
#1798=CARTESIAN_POINT('',(25.,9.64181414529808,5.));
#1799=CARTESIAN_POINT('Origin',(26.5,11.1418141452981,5.));
#1800=CARTESIAN_POINT('Origin',(26.5,11.1418141452981,-3.11230773518311E-17));
#1801=CARTESIAN_POINT('',(26.5,9.64181414529808,-9.33894367499837E-17));
#1802=CARTESIAN_POINT('',(25.,11.1418141452981,-3.11230773518307E-17));
#1803=CARTESIAN_POINT('Origin',(25.,9.64181414529808,0.));
#1804=CARTESIAN_POINT('',(78.83,9.64181414529808,-2.31111593326468E-32));
#1805=CARTESIAN_POINT('Origin',(26.5,12.6413274131039,-1.69779127647643E-16));
#1806=CARTESIAN_POINT('',(25.,12.6413274131039,-1.69779127647642E-16));
#1807=CARTESIAN_POINT('',(26.5,14.1413274131039,3.08148791101958E-32));
#1808=CARTESIAN_POINT('Origin',(25.,14.1413274131039,0.));
#1809=CARTESIAN_POINT('Origin',(78.83,11.1418141452981,6.22663593981526E-17));
#1810=CARTESIAN_POINT('',(80.33,11.1418141452981,6.22663593981526E-17));
#1811=CARTESIAN_POINT('Origin',(80.33,9.64181414529808,0.));
#1812=CARTESIAN_POINT('',(80.33,12.6413274131039,8.48620181680436E-17));
#1813=CARTESIAN_POINT('Origin',(78.83,12.6413274131039,8.48620181680436E-17));
#1814=CARTESIAN_POINT('',(78.83,14.1413274131039,2.54641145815686E-16));
#1815=CARTESIAN_POINT('Origin',(80.33,14.1413274131039,0.));
#1816=CARTESIAN_POINT('Origin',(6.,2.60176033229235,57.8575926033339));
#1817=CARTESIAN_POINT('',(6.,2.60176033229235,57.8575926033339));
#1818=CARTESIAN_POINT('',(29.3325,2.60176033229235,57.8575926033339));
#1819=CARTESIAN_POINT('',(6.,4.5168714400898,56.2506235791176));
#1820=CARTESIAN_POINT('Origin',(52.665,13.7637671744991,71.159954358095));
#1821=CARTESIAN_POINT('',(6.,29.9523731244546,90.4527836580464));
#1822=CARTESIAN_POINT('',(6.,-2.42483877545639,51.8671250581435));
#1823=CARTESIAN_POINT('',(99.33,29.9523731244546,90.4527836580464));
#1824=CARTESIAN_POINT('',(6.,29.9523731244546,90.4527836580464));
#1825=CARTESIAN_POINT('',(99.33,19.7674034489714,78.3148094568262));
#1826=CARTESIAN_POINT('',(99.33,29.9523731244546,90.4527836580464));
#1827=CARTESIAN_POINT('',(105.33,19.7674034489714,78.3148094568262));
#1828=CARTESIAN_POINT('',(75.9975,19.7674034489714,78.3148094568262));
#1829=CARTESIAN_POINT('',(105.33,-6.28156443357562,47.2708583994296));
#1830=CARTESIAN_POINT('',(2.4,31.2379483438277,91.9848725442844));
#1831=CARTESIAN_POINT('Origin',(4.,31.2379483438277,91.9848725442844));
#1832=CARTESIAN_POINT('',(99.73,31.2379483438277,91.9848725442844));
#1833=CARTESIAN_POINT('Origin',(101.33,31.2379483438277,91.9848725442844));
#1834=CARTESIAN_POINT('Origin',(6.,1.40538344013851,48.6531870097108));
#1835=CARTESIAN_POINT('',(6.,33.7825953400495,87.2388456096137));
#1836=CARTESIAN_POINT('Origin',(99.33,19.7674034489714,78.3148094568262));
#1837=CARTESIAN_POINT('',(99.33,20.5334478920904,77.6720218471397));
#1838=CARTESIAN_POINT('',(99.33,21.6825145567688,76.7078404326099));
#1839=CARTESIAN_POINT('',(105.33,20.5334478920904,77.6720218471397));
#1840=CARTESIAN_POINT('',(99.33,20.5334478920904,77.6720218471397));
#1841=CARTESIAN_POINT('',(105.33,22.9081856657592,75.6793802571114));
#1842=CARTESIAN_POINT('Origin',(105.33,8.19722647461368,64.5260094806846));
#1843=CARTESIAN_POINT('',(105.33,8.19722647461368,64.5260094806846));
#1844=CARTESIAN_POINT('',(99.33,8.19722647461368,64.5260094806846));
#1845=CARTESIAN_POINT('',(78.9975,8.19722647461368,64.5260094806846));
#1846=CARTESIAN_POINT('',(105.33,8.96327091773266,63.8832218709981));
#1847=CARTESIAN_POINT('',(105.33,11.3380086914015,61.8905802809698));
#1848=CARTESIAN_POINT('',(99.33,8.96327091773266,63.8832218709981));
#1849=CARTESIAN_POINT('',(105.33,8.96327091773266,63.8832218709981));
#1850=CARTESIAN_POINT('',(99.33,10.1123375824111,62.9190404564683));
#1851=CARTESIAN_POINT('Origin',(55.665,14.5298116176181,70.5171667484084));
#1852=CARTESIAN_POINT('',(99.33,22.6241145925958,80.1635813983842));
#1853=CARTESIAN_POINT('',(105.33,4.50714581358072,58.5726187690758));
#1854=CARTESIAN_POINT('Origin',(105.33,0.,42.));
#1855=CARTESIAN_POINT('',(105.33,-6.28156443357562,47.2708583994296));
#1856=CARTESIAN_POINT('',(105.33,-6.28156443357562,47.2708583994296));
#1857=CARTESIAN_POINT('',(105.33,0.,42.));
#1858=CARTESIAN_POINT('Origin',(6.,33.7825953400495,87.2388456096137));
#1859=CARTESIAN_POINT('',(99.33,33.7825953400495,87.2388456096137));
#1860=CARTESIAN_POINT('Origin',(6.,1.40538344013851,48.6531870097108));
#1861=CARTESIAN_POINT('',(6.,-2.42483877545639,51.8671250581435));
#1862=CARTESIAN_POINT('',(6.,-2.42483877545639,51.8671250581435));
#1863=CARTESIAN_POINT('',(6.,1.40538344013851,48.6531870097108));
#1864=CARTESIAN_POINT('Origin',(99.33,1.40538344013851,48.6531870097108));
#1865=CARTESIAN_POINT('',(99.33,-2.42483877545639,51.8671250581435));
#1866=CARTESIAN_POINT('',(99.33,1.4053834401385,48.6531870097108));
#1867=CARTESIAN_POINT('',(99.33,-2.42483877545639,51.8671250581435));
#1868=CARTESIAN_POINT('Origin',(99.33,33.7825953400495,87.2388456096137));
#1869=CARTESIAN_POINT('',(99.33,29.9523731244546,90.4527836580464));
#1870=CARTESIAN_POINT('Origin',(52.665,13.7637671744991,71.159954358095));
#1871=CARTESIAN_POINT('',(0.,-6.28156443357562,47.2708583994296));
#1872=CARTESIAN_POINT('',(99.73,-3.71041399482946,50.3350361719055));
#1873=CARTESIAN_POINT('Origin',(101.33,-3.71041399482946,50.3350361719055));
#1874=CARTESIAN_POINT('',(2.4,-3.71041399482946,50.3350361719055));
#1875=CARTESIAN_POINT('Origin',(4.,-3.71041399482946,50.3350361719055));
#1876=CARTESIAN_POINT('Origin',(36.,17.9144906819638,63.3496586297259));
#1877=CARTESIAN_POINT('',(37.,17.9144906819638,63.3496586297259));
#1878=CARTESIAN_POINT('',(36.,18.5572782916504,64.1157030728449));
#1879=CARTESIAN_POINT('Origin',(37.,18.5572782916504,64.1157030728449));
#1880=CARTESIAN_POINT('',(37.,16.6289154625908,61.817569743488));
#1881=CARTESIAN_POINT('Origin',(32.,17.9144906819638,63.3496586297259));
#1882=CARTESIAN_POINT('',(32.,18.5572782916504,64.1157030728449));
#1883=CARTESIAN_POINT('',(31.,17.9144906819638,63.3496586297259));
#1884=CARTESIAN_POINT('Origin',(31.,18.5572782916504,64.1157030728449));
#1885=CARTESIAN_POINT('Origin',(32.,16.6289154625908,61.817569743488));
#1886=CARTESIAN_POINT('',(31.,16.6289154625908,61.817569743488));
#1887=CARTESIAN_POINT('',(32.,15.9861278529042,61.051525300369));
#1888=CARTESIAN_POINT('Origin',(31.,15.9861278529042,61.051525300369));
#1889=CARTESIAN_POINT('Origin',(36.,16.6289154625908,61.817569743488));
#1890=CARTESIAN_POINT('',(36.,15.9861278529042,61.051525300369));
#1891=CARTESIAN_POINT('Origin',(37.,15.9861278529042,61.051525300369));
#1892=CARTESIAN_POINT('Origin',(4.,2.57115043874616,45.0641777724759));
#1893=CARTESIAN_POINT('',(2.4,2.57115043874616,45.0641777724759));
#1894=CARTESIAN_POINT('Origin',(101.33,37.5195127774033,86.7140141448548));
#1895=CARTESIAN_POINT('',(99.73,37.5195127774033,86.7140141448548));
#1896=CARTESIAN_POINT('Origin',(4.,37.5195127774033,86.7140141448548));
#1897=CARTESIAN_POINT('',(2.4,37.5195127774033,86.7140141448548));
#1898=CARTESIAN_POINT('Origin',(101.33,2.57115043874616,45.0641777724759));
#1899=CARTESIAN_POINT('',(99.73,2.57115043874616,45.0641777724759));
#1900=CARTESIAN_POINT('Origin',(0.,0.,42.));
#1901=CARTESIAN_POINT('Origin',(10.,40.0908141452981,0.));
#1902=CARTESIAN_POINT('',(10.,-10.6081858547019,0.));
#1903=CARTESIAN_POINT('Origin',(95.33,40.0908141452981,0.));
#1904=CARTESIAN_POINT('',(10.,40.0908141452981,0.));
#1905=CARTESIAN_POINT('Origin',(52.665,14.7413141452981,0.));
#1906=UNCERTAINTY_MEASURE_WITH_UNIT(LENGTH_MEASURE(0.01),#1910,
'DISTANCE_ACCURACY_VALUE',
'Maximum model space distance between geometric entities at asserted c
onnectivities');
#1907=UNCERTAINTY_MEASURE_WITH_UNIT(LENGTH_MEASURE(0.01),#1910,
'DISTANCE_ACCURACY_VALUE',
'Maximum model space distance between geometric entities at asserted c
onnectivities');
#1908=(
GEOMETRIC_REPRESENTATION_CONTEXT(3)
GLOBAL_UNCERTAINTY_ASSIGNED_CONTEXT((#1906))
GLOBAL_UNIT_ASSIGNED_CONTEXT((#1910,#1912,#1913))
REPRESENTATION_CONTEXT('','3D')
);
#1909=(
GEOMETRIC_REPRESENTATION_CONTEXT(3)
GLOBAL_UNCERTAINTY_ASSIGNED_CONTEXT((#1907))
GLOBAL_UNIT_ASSIGNED_CONTEXT((#1910,#1912,#1913))
REPRESENTATION_CONTEXT('','3D')
);
#1910=(
LENGTH_UNIT()
NAMED_UNIT(*)
SI_UNIT(.MILLI.,.METRE.)
);
#1911=(
LENGTH_UNIT()
NAMED_UNIT(*)
SI_UNIT($,.METRE.)
);
#1912=(
NAMED_UNIT(*)
PLANE_ANGLE_UNIT()
SI_UNIT($,.RADIAN.)
);
#1913=(
NAMED_UNIT(*)
SI_UNIT($,.STERADIAN.)
SOLID_ANGLE_UNIT()
);
#1914=SHAPE_DEFINITION_REPRESENTATION(#1915,#1916);
#1915=PRODUCT_DEFINITION_SHAPE('',$,#1918);
#1916=SHAPE_REPRESENTATION('',(#1142),#1908);
#1917=PRODUCT_DEFINITION_CONTEXT('part definition',#1922,'design');
#1918=PRODUCT_DEFINITION('2026-06-15-00-16-35-276','Kurokku case',#1919,
#1917);
#1919=PRODUCT_DEFINITION_FORMATION('',$,#1924);
#1920=PRODUCT_RELATED_PRODUCT_CATEGORY('Kurokku case','Kurokku case',(#1924));
#1921=APPLICATION_PROTOCOL_DEFINITION('international standard',
'automotive_design',2009,#1922);
#1922=APPLICATION_CONTEXT(
'Core Data for Automotive Mechanical Design Process');
#1923=PRODUCT_CONTEXT('part definition',#1922,'mechanical');
#1924=PRODUCT('2026-06-15-00-16-35-276','Kurokku case',$,(#1923));
#1925=PRESENTATION_STYLE_ASSIGNMENT((#1926));
#1926=SURFACE_STYLE_USAGE(.BOTH.,#1927);
#1927=SURFACE_SIDE_STYLE('',(#1928));
#1928=SURFACE_STYLE_FILL_AREA(#1929);
#1929=FILL_AREA_STYLE('ABS (White)',(#1930));
#1930=FILL_AREA_STYLE_COLOUR('ABS (White)',#1931);
#1931=COLOUR_RGB('ABS (White)',0.964705882352941,0.964705882352941,0.952941176470588);
ENDSEC;
END-ISO-10303-21;
